<svg width="24" height="17" viewBox="0 0 24 17" fill="none" xmlns="http://www.w3.org/2000/svg">
<path d="M24 6.10123C24 5.7362 23.7619 5.37117 23.3914 5.21472L12.516 0.130368C12.3572 0.0521472 12.172 0 11.9868 0C11.8015 0 11.6163 0.0521472 11.4576 0.130368L0.6086 5.21472C0.264609 5.37117 0 5.7362 0 6.04908C0 6.41411 0.238148 6.77914 0.6086 6.93558L4.94818 8.96933V14.9663C4.94818 15.1227 5.02756 15.2531 5.15987 15.3574C7.3032 16.4264 9.60529 16.9739 11.9868 16.9739C14.3947 16.9739 16.7497 16.4003 18.8137 15.3574C18.9724 15.2531 19.0518 15.1227 19.0518 14.9663V8.96933L21.0893 8.0046V10.0644L20.1103 13.8972C20.1103 13.9755 20.1103 14.2101 20.269 14.3405C20.3484 14.4187 20.4542 14.4448 20.5601 14.4187H22.4388C22.624 14.4187 22.7563 14.3144 22.8093 14.2362C22.8886 14.1058 22.9151 13.9494 22.8886 13.8712L21.9625 10.0905V7.6135L23.3649 6.93558C23.7619 6.75307 24 6.44018 24 6.10123ZM18.1522 14.7577C16.194 15.6963 14.0772 16.1656 11.9868 16.1656C9.8699 16.1656 7.72657 15.6963 5.79493 14.7316H5.76847V9.41258L5.82139 9.43865L11.4046 12.046C11.6163 12.1242 11.7751 12.1503 11.9603 12.1503C12.0926 12.1503 12.3572 12.1503 12.516 12.0199L18.1257 9.3865V14.7577H18.1522ZM21.1422 13.5583L21.5391 11.9939L21.9361 13.5583H21.1422ZM23.0739 6.1273C23.0739 6.1273 23.0474 6.1273 23.0474 6.15337L12.1455 11.2377C12.0926 11.2638 12.0397 11.2638 11.9868 11.2638C11.9338 11.2638 11.8809 11.2638 11.828 11.2377L0.979052 6.1273C0.952591 6.10123 0.92613 6.10123 0.92613 6.07515V6.04908H0.952591V6.02301C0.952591 6.02301 0.979052 6.02301 0.979052 5.99693L11.8545 0.912577C11.9074 0.886503 11.9338 0.886503 12.0132 0.886503C12.0926 0.886503 12.0926 0.886503 12.1455 0.93865L12.172 0.964724L23.1268 6.10123L23.0739 6.1273Z" fill="#22468F"/>
</svg>
