<svg width="24" height="21" viewBox="0 0 24 21" fill="none" xmlns="http://www.w3.org/2000/svg">
<g clip-path="url(#clip0)">
<path d="M0.640777 0.682129H5.91262C6.26214 0.682129 6.5534 0.966327 6.5534 1.30737V20.0645C6.5534 20.4055 6.26214 20.6897 5.91262 20.6897H0.640777C0.291262 20.6897 0 20.4055 0 20.0645V1.30737C0 0.937908 0.291262 0.682129 0.640777 0.682129Z" fill="#F9DF60"/>
<path d="M7.1647 0.682129H12.4365C12.7861 0.682129 13.0773 0.966327 13.0773 1.30737V20.0645C13.0773 20.4055 12.7861 20.6897 12.4365 20.6897H7.1647C6.81519 20.6897 6.52393 20.4055 6.52393 20.0645V1.30737C6.52393 0.937908 6.81519 0.682129 7.1647 0.682129Z" fill="#9296A8"/>
<g opacity="0.5">
<path opacity="0.5" d="M13.0773 1.30737V20.0645C13.0773 20.4055 12.7861 20.6897 12.4365 20.6897H7.1647C6.81519 20.6897 6.52393 20.4055 6.52393 20.0645V20.0076H11.2715C11.621 20.0076 11.9123 19.7234 11.9123 19.3824V0.682129H12.4365C12.7861 0.682129 13.0773 0.937908 13.0773 1.30737Z" fill="#848699"/>
</g>
<path d="M6.52393 3.6377H13.0773V5.54183H6.52393V3.6377Z" fill="#848699"/>
<path d="M6.52393 15.7729H13.0773V17.6771H6.52393V15.7729Z" fill="#848699"/>
<path d="M13.5729 1.22212L18.6991 0.0284812C19.0486 -0.0567783 19.3981 0.142161 19.4564 0.483199L23.9709 18.7003C24.0583 19.0414 23.8544 19.3824 23.5049 19.4392L18.3787 20.6329C18.0292 20.7181 17.6797 20.5192 17.6214 20.1782L13.1069 1.98945C13.0195 1.64841 13.2234 1.30737 13.5729 1.22212Z" fill="#91DEAA"/>
<path d="M19.4563 0.483199L23.9709 18.7003C24.0582 19.0414 23.8543 19.3824 23.5048 19.4392L18.3786 20.6613C18.0291 20.7466 17.6796 20.5476 17.6213 20.2066V20.1497L22.2524 19.0414C22.6019 18.9561 22.8058 18.6151 22.7184 18.3025L18.1747 0.142161L18.6699 0.0284812C19.0194 -0.0567783 19.3689 0.142161 19.4563 0.483199Z" fill="#54C295"/>
<path d="M13.6599 4.26309L20.0094 2.75684L20.4754 4.60413L14.1259 6.11038L13.6599 4.26309Z" fill="#54C295"/>
<path d="M16.5725 16.0858L22.922 14.5796L23.388 16.4269L17.0385 17.9331L16.5725 16.0858Z" fill="#54C295"/>
<path d="M6.52427 1.30737V20.0645C6.52427 20.4055 6.23301 20.6897 5.8835 20.6897H0.640777C0.291262 20.6897 0 20.4055 0 20.0645V20.0076H4.74757C5.09709 20.0076 5.38835 19.7234 5.38835 19.3824V0.682129H5.91262C6.26214 0.682129 6.52427 0.937908 6.52427 1.30737Z" fill="#F4C059"/>
<path d="M0 3.6377H6.5534V5.54183H0V3.6377Z" fill="#F1A254"/>
<path d="M0 15.7729H6.5534V17.6771H0V15.7729Z" fill="#F1A254"/>
</g>
<defs>
<clipPath id="clip0">
<rect width="24" height="20.6897" fill="white"/>
</clipPath>
</defs>
</svg>
