<svg width="24" height="24" viewBox="0 0 24 24" fill="none" xmlns="http://www.w3.org/2000/svg">
<g clip-path="url(#clip0_538:66)">
<path d="M5.0245 16.2667C4.73051 16.2667 4.48998 16.5067 4.48998 16.8V20.32L3.12695 18.4533C1.76392 16.56 1.01559 14.32 1.01559 12C1.01559 9.06667 2.13808 6.32 4.22272 4.26667C6.28062 2.24 9.11358 1.06667 11.9465 1.06667C13.2027 1.06667 14.4855 1.28 15.7149 1.73333H15.7416C15.7951 1.76 15.8486 1.76 15.8753 1.76C16.0891 1.76 16.3029 1.62667 16.3831 1.41333C16.4365 1.28 16.4098 1.12 16.3831 1.01333C16.3029 0.853333 16.196 0.8 16.0891 0.746667C14.833 0.24 13.4432 0 11.9733 0C8.8196 0 5.71938 1.28 3.50111 3.52C1.2294 5.78667 0 8.8 0 11.9733C0 14.6933 0.935412 17.36 2.64588 19.44L3.63474 20.6667H0.614699C0.320713 20.6667 0.0801782 20.9067 0.0801782 21.2C0.0801782 21.4933 0.320713 21.7333 0.614699 21.7333L5.0245 21.76H5.05122L5.1314 21.7333H5.21158H5.26503C5.29176 21.7333 5.29176 21.7333 5.31848 21.7333H5.34521L5.37194 21.7067L5.47884 21.6267L5.50557 21.6C5.58575 21.4933 5.61247 21.3867 5.61247 21.28V16.8533C5.55902 16.5067 5.31848 16.2667 5.0245 16.2667Z" fill="#22468F"/>
<path d="M20.3918 3.25343H23.4921C23.7861 3.25343 24.0266 3.01343 24.0266 2.7201C24.0266 2.42677 23.7861 2.18677 23.4921 2.18677H19.0555C18.7616 2.18677 18.521 2.42677 18.521 2.7201V7.17343C18.521 7.46677 18.7616 7.70677 19.0555 7.70677C19.3495 7.70677 19.5901 7.46677 19.5901 7.17343V3.70677L20.9531 5.62677C22.2627 7.49343 22.9575 9.6801 22.9575 11.9734C22.9575 14.9068 21.8351 17.6534 19.7504 19.7068C17.6658 21.7601 14.913 22.9068 12.0266 22.9068C10.6636 22.9068 9.35399 22.6668 8.07114 22.1868C7.96423 22.1334 7.80388 22.1334 7.67025 22.2134C7.53662 22.2668 7.42971 22.3734 7.37626 22.4801C7.26936 22.7468 7.40299 23.0668 7.67025 23.1734C9.08673 23.7334 10.5567 24.0001 12.0266 24.0001C15.2337 24.0001 18.227 22.7468 20.472 20.4801C22.717 18.1868 23.9731 15.1468 23.9731 11.9734C23.9731 9.25343 23.0377 6.58677 21.3273 4.45343L20.3918 3.25343Z" fill="#22468F"/>
</g>
<defs>
<clipPath id="clip0_538:66">
<rect width="24" height="24" fill="white"/>
</clipPath>
</defs>
</svg>
