<svg width="24" height="26" viewBox="0 0 24 26" fill="none" xmlns="http://www.w3.org/2000/svg">
<g clip-path="url(#clip0)">
<path d="M23.5877 5.80726L18.2577 0.471655C17.9632 0.176871 17.5509 0 17.1092 0H7.00859C6.59632 0 6.18405 0.176871 5.83067 0.501134C5.50675 0.825397 5.35951 1.20862 5.35951 1.65079V4.18594H1.64908C1.23681 4.18594 0.82454 4.36281 0.471166 4.68708C0.176687 4.98186 0 5.36508 0 5.83673V24.3787C0 25.263 0.736196 26 1.61963 26H18.2282C19.1117 26 19.8478 25.263 19.8478 24.3787V21.8435H22.3804C23.2638 21.8435 24 21.1066 24 20.2222V6.95692C24.0589 6.5737 23.9116 6.13152 23.5877 5.80726ZM6.27239 1.62132C6.27239 1.41497 6.33129 1.2381 6.47853 1.0907C6.62576 0.972789 6.80245 0.884354 7.00859 0.884354L17.1681 0.913832V5.39456C17.1681 6.24943 17.8454 6.92744 18.6994 6.92744H23.1755V20.1633C23.1755 20.576 22.8515 20.9297 22.4098 20.9297H7.00859C6.59632 20.9297 6.27239 20.6054 6.27239 20.1927V1.62132ZM7.00859 21.7846H19.0233V24.3492C19.0233 24.7619 18.6994 25.0862 18.2871 25.0862H1.67853C1.26626 25.0862 0.942331 24.7619 0.942331 24.3492V5.80726C0.942331 5.60091 1.00123 5.42404 1.14847 5.27664C1.29571 5.12925 1.47239 5.0703 1.67853 5.0703H5.38896V20.1633C5.38896 21.0771 6.0957 21.7846 7.00859 21.7846ZM18.0221 5.42404V1.73923H18.2282L18.2871 1.76871L22.557 6.04308H18.6699C18.3166 6.04308 18.0221 5.77778 18.0221 5.42404Z" fill="#22468F"/>
<path d="M9.21735 10.6417H20.172C20.437 10.6417 20.6137 10.4059 20.6137 10.1995C20.6137 9.99315 20.437 9.75732 20.172 9.75732H9.21735C8.95232 9.75732 8.77563 9.99315 8.77563 10.1995C8.80508 10.4353 9.01122 10.6417 9.21735 10.6417Z" fill="#22468F"/>
<path d="M9.21735 14.3853H20.172C20.437 14.3853 20.6137 14.1495 20.6137 13.9432C20.6137 13.7368 20.437 13.501 20.172 13.501H9.21735C8.95232 13.501 8.77563 13.7368 8.77563 13.9432C8.80508 14.179 9.01122 14.3853 9.21735 14.3853Z" fill="#22468F"/>
<path d="M9.21735 18.1292H20.172C20.437 18.1292 20.6137 17.8934 20.6137 17.687C20.6137 17.4807 20.437 17.2449 20.172 17.2449H9.21735C8.95232 17.2449 8.77563 17.4807 8.77563 17.687C8.80508 17.9524 9.01122 18.1292 9.21735 18.1292Z" fill="#22468F"/>
</g>
<defs>
<clipPath id="clip0">
<rect width="24" height="26" fill="white"/>
</clipPath>
</defs>
</svg>
