<svg width="49" height="49" viewBox="0 0 49 49" fill="none" xmlns="http://www.w3.org/2000/svg">
<path d="M24.5 0C10.9698 0 0 10.9698 0 24.5C0 38.0317 10.9698 49 24.5 49C38.0317 49 49 38.0333 49 24.5C49 10.9698 38.0316 0 24.5 0ZM24.5 44.4062C13.5057 44.4062 4.59383 35.4943 4.59383 24.5C4.59383 13.5057 13.5057 4.59383 24.5 4.59383C35.4943 4.59383 44.4062 13.5057 44.4062 24.5C44.4062 35.4943 35.4943 44.4062 24.5 44.4062ZM24.5015 10.7447C22.7468 10.7447 21.4191 11.6605 21.4191 13.1396V26.7065C21.4191 28.1872 22.7466 29.0998 24.5015 29.0998C26.2135 29.0998 27.584 28.149 27.584 26.7065V13.1396C27.5839 11.6956 26.2135 10.7447 24.5015 10.7447ZM24.5015 32.1563C22.8156 32.1563 21.4436 33.5283 21.4436 35.2156C21.4436 36.9 22.8156 38.2721 24.5015 38.2721C26.1874 38.2721 27.558 36.9 27.558 35.2156C27.5578 33.5282 26.1874 32.1563 24.5015 32.1563Z" fill="#E2574C"/>
</svg>
