<svg width="24" height="23" viewBox="0 0 24 23" fill="none" xmlns="http://www.w3.org/2000/svg">
<path d="M2.75931 10.8299H8.14324C8.38431 10.8299 8.5986 10.6154 8.5986 10.3742C8.5986 10.1329 8.38431 9.91846 8.14324 9.91846H2.75931C2.51824 9.91846 2.30396 10.1329 2.30396 10.3742C2.30396 10.6154 2.51824 10.8299 2.75931 10.8299Z" fill="#22468F"/>
<path d="M2.75931 8.8997H10.2057C10.4468 8.8997 10.6611 8.68525 10.6611 8.44399C10.6611 8.20273 10.4468 7.98828 10.2057 7.98828H2.75931C2.51824 7.98828 2.30396 8.20273 2.30396 8.44399C2.30396 8.68525 2.51824 8.8997 2.75931 8.8997Z" fill="#22468F"/>
<path d="M23.0357 5.46853H22.4732V2.76107C22.4732 2.4662 22.3929 2.25175 22.2054 2.0641C21.9107 1.79604 21.5357 1.79604 21.1339 1.79604H10.7411L9.40178 0.160839C9.32143 0.0536131 9.1875 0 9.05357 0H3.26786C2.46429 0 1.79464 0.670163 1.79464 1.47436V5.46853H0.964286C0.428571 5.46853 0 5.89744 0 6.43357V22.0082C0 22.5443 0.428571 22.9732 0.964286 22.9732H23.0357C23.5714 22.9732 24 22.5443 24 22.0082V6.43357C24 5.92424 23.5714 5.46853 23.0357 5.46853ZM3.26786 0.911422H8.83929L10.1786 2.54662C10.2589 2.65385 10.3929 2.70746 10.5268 2.70746H21.1339C21.4018 2.70746 21.5089 2.70746 21.5625 2.70746C21.5625 2.70746 21.5625 2.73427 21.5625 2.76107V5.46853H2.70536V1.47436C2.70536 1.15268 2.94643 0.911422 3.26786 0.911422ZM0.910714 6.43357C0.910714 6.40676 0.9375 6.37995 0.964286 6.37995H23.0357C23.0625 6.37995 23.0893 6.40676 23.0893 6.43357V22.0082C23.0893 22.035 23.0625 22.0618 23.0357 22.0618H0.964286C0.9375 22.0618 0.910714 22.035 0.910714 22.0082V6.43357Z" fill="#22468F"/>
</svg>
