<svg width="24" height="23" viewBox="0 0 24 23" fill="none" xmlns="http://www.w3.org/2000/svg">
<path d="M23.9779 8.42334C23.8988 7.96108 23.6616 7.5245 23.2661 7.19065L13.1428 0.385214C12.4837 -0.128405 11.5874 -0.128405 10.8756 0.385214L0.804934 7.19065C0.40949 7.42178 0.145861 7.80699 0.0404094 8.26925C-0.0650422 8.78287 0.0404094 9.29649 0.304038 9.6817C0.673119 10.2467 1.46401 10.5549 2.22853 10.4264C2.28126 10.4264 2.33398 10.4264 2.38671 10.4778C2.43943 10.5035 2.4658 10.5805 2.4658 10.6319V20.9043C2.4658 21.9315 3.25668 22.7276 4.28484 22.7276H19.628C20.6562 22.7276 21.4998 21.9058 21.4998 20.9043V10.6319C21.4998 10.5805 21.5262 10.5292 21.5789 10.4778C21.6316 10.4521 21.6844 10.4264 21.7371 10.4264C22.4752 10.5805 23.1607 10.3237 23.5561 9.75874C23.5561 9.75874 23.5561 9.75874 23.5561 9.73306C23.9252 9.37353 24.057 8.88559 23.9779 8.42334ZM10.0847 15.8965C10.0847 15.614 10.2956 15.4085 10.5328 15.4085H13.4328C13.6964 15.4085 13.8809 15.6397 13.8809 15.8965V21.5976C13.8809 21.7004 13.8018 21.8031 13.67 21.8031H10.2956C10.1901 21.8031 10.0847 21.726 10.0847 21.5976V15.8965ZM13.4328 14.5354H10.5328C9.79468 14.5354 9.18834 15.1517 9.18834 15.8965V21.5976C9.18834 21.7004 9.10925 21.8031 8.97743 21.8031H4.3112C3.78394 21.8031 3.3885 21.4179 3.3885 20.9043V9.91283C3.3885 9.86147 3.41486 9.78442 3.46759 9.75874L11.8774 4.16031C11.9564 4.10894 12.0355 4.10894 12.0883 4.16031L20.498 9.75874C20.5507 9.78442 20.5771 9.86147 20.5771 9.91283V20.9043C20.5771 21.4179 20.1817 21.8031 19.6544 21.8031H15.0409C14.9355 21.8031 14.83 21.726 14.83 21.5976V15.8965C14.8564 15.1517 14.2237 14.5354 13.4328 14.5354ZM12.0092 0.898832C12.2201 0.898832 12.431 0.975874 12.5892 1.10428L22.6334 7.90972C22.6334 7.90972 22.6334 7.90972 22.6598 7.9354C23.108 8.32061 23.2925 8.65446 22.897 9.29649C22.897 9.29649 22.897 9.32217 22.8707 9.32217C22.6861 9.52761 22.2643 9.81011 21.5525 9.42489L12.2992 3.26147C12.0883 3.10739 11.8774 3.10739 11.7192 3.23579L2.41307 9.39921C2.25489 9.52761 2.07035 9.57898 1.88581 9.57898C1.59582 9.57898 1.30583 9.45057 1.12129 9.21944C0.963111 8.98832 0.884022 8.73151 0.936748 8.4747C0.989474 8.24357 1.12129 8.03812 1.30583 7.90972L11.4028 1.0786C11.5874 0.950193 11.7983 0.898832 12.0092 0.898832Z" fill="#22468F"/>
</svg>
