<svg width="24" height="24" viewBox="0 0 24 24" fill="none" xmlns="http://www.w3.org/2000/svg">
<path d="M22.3857 1.53363H20.1794V0.457399C20.1794 0.188341 19.9641 0 19.722 0C19.4798 0 19.2646 0.215247 19.2646 0.457399V1.53363H4.78924V0.457399C4.78924 0.215247 4.57399 0 4.30493 0C4.03587 0 3.84753 0.215247 3.84753 0.457399V1.53363H1.61435C0.726457 1.53363 0 2.26009 0 3.14798V22.3857C0 23.2735 0.726457 24 1.61435 24H22.3857C23.2735 24 24 23.2735 24 22.3857V3.17489C24.0269 2.26009 23.3004 1.53363 22.3857 1.53363ZM0.941704 7.07623H23.0852V22.3857C23.0852 22.7623 22.7623 23.0852 22.3857 23.0852H1.61435C1.23767 23.0852 0.914798 22.7623 0.914798 22.3857V7.07623H0.941704ZM4.30493 4.00897C4.57399 4.00897 4.76233 3.79372 4.76233 3.55157V2.47534H19.2108V3.55157C19.2108 3.82063 19.426 4.00897 19.6682 4.00897C19.9103 4.00897 20.1256 3.79372 20.1256 3.55157V2.47534H22.3587C22.7354 2.47534 23.0583 2.79821 23.0583 3.17489V6.16144H0.941704V3.17489C0.941704 2.79821 1.26457 2.47534 1.64126 2.47534H3.87444V3.55157C3.84753 3.79372 4.06278 4.00897 4.30493 4.00897Z" fill="#22468F"/>
<path d="M4.30542 14.3408C4.73635 14.3408 5.08568 13.9915 5.08568 13.5605C5.08568 13.1296 4.73635 12.7803 4.30542 12.7803C3.87448 12.7803 3.52515 13.1296 3.52515 13.5605C3.52515 13.9915 3.87448 14.3408 4.30542 14.3408Z" fill="#22468F"/>
<path d="M4.30542 15.8477C3.87492 15.8477 3.52515 16.1974 3.52515 16.6279C3.52515 17.0584 3.87492 17.4082 4.30542 17.4082C4.73591 17.4082 5.08568 17.0584 5.08568 16.6279C5.08568 16.1974 4.73591 15.8477 4.30542 15.8477Z" fill="#22468F"/>
<path d="M4.30542 20.4753C4.73635 20.4753 5.08568 20.126 5.08568 19.6951C5.08568 19.2641 4.73635 18.9148 4.30542 18.9148C3.87448 18.9148 3.52515 19.2641 3.52515 19.6951C3.52515 20.126 3.87448 20.4753 4.30542 20.4753Z" fill="#22468F"/>
<path d="M16.6277 9.71313C16.1972 9.71313 15.8474 10.0629 15.8474 10.4934C15.8474 10.9239 16.1972 11.2737 16.6277 11.2737C17.0582 11.2737 17.4079 10.9239 17.4079 10.4934C17.4079 10.036 17.0582 9.71313 16.6277 9.71313Z" fill="#22468F"/>
<path d="M16.6277 14.3408C17.0586 14.3408 17.4079 13.9915 17.4079 13.5605C17.4079 13.1296 17.0586 12.7803 16.6277 12.7803C16.1967 12.7803 15.8474 13.1296 15.8474 13.5605C15.8474 13.9915 16.1967 14.3408 16.6277 14.3408Z" fill="#22468F"/>
<path d="M16.6277 15.8477C16.1972 15.8477 15.8474 16.1974 15.8474 16.6279C15.8474 17.0584 16.1972 17.4082 16.6277 17.4082C17.0582 17.4082 17.4079 17.0584 17.4079 16.6279C17.4079 16.1974 17.0582 15.8477 16.6277 15.8477Z" fill="#22468F"/>
<path d="M16.6277 20.4753C17.0586 20.4753 17.4079 20.126 17.4079 19.6951C17.4079 19.2641 17.0586 18.9148 16.6277 18.9148C16.1967 18.9148 15.8474 19.2641 15.8474 19.6951C15.8474 20.126 16.1967 20.4753 16.6277 20.4753Z" fill="#22468F"/>
<path d="M19.6948 9.71313C19.2643 9.71313 18.9146 10.0629 18.9146 10.4934C18.9146 10.9239 19.2643 11.2737 19.6948 11.2737C20.1253 11.2737 20.4751 10.9239 20.4751 10.4934C20.4751 10.036 20.1253 9.71313 19.6948 9.71313Z" fill="#22468F"/>
<path d="M19.6948 12.7803C19.2643 12.7803 18.9146 13.13 18.9146 13.5605C18.9146 13.991 19.2643 14.3408 19.6948 14.3408C20.1253 14.3408 20.4751 13.991 20.4751 13.5605C20.4751 13.13 20.1253 12.7803 19.6948 12.7803Z" fill="#22468F"/>
<path d="M19.6948 15.8477C19.2643 15.8477 18.9146 16.1974 18.9146 16.6279C18.9146 17.0584 19.2643 17.4082 19.6948 17.4082C20.1253 17.4082 20.4751 17.0584 20.4751 16.6279C20.4751 16.1974 20.1253 15.8477 19.6948 15.8477Z" fill="#22468F"/>
<path d="M10.4661 9.71313C10.0356 9.71313 9.68579 10.0629 9.68579 10.4934C9.68579 10.9239 10.0356 11.2737 10.4661 11.2737C10.8966 11.2737 11.2463 10.9239 11.2463 10.4934C11.2463 10.036 10.8966 9.71313 10.4661 9.71313Z" fill="#22468F"/>
<path d="M10.4661 14.3408C10.897 14.3408 11.2463 13.9915 11.2463 13.5605C11.2463 13.1296 10.897 12.7803 10.4661 12.7803C10.0351 12.7803 9.68579 13.1296 9.68579 13.5605C9.68579 13.9915 10.0351 14.3408 10.4661 14.3408Z" fill="#22468F"/>
<path d="M10.4661 15.8477C10.0356 15.8477 9.68579 16.1974 9.68579 16.6279C9.68579 17.0584 10.0356 17.4082 10.4661 17.4082C10.8966 17.4082 11.2463 17.0584 11.2463 16.6279C11.2463 16.1974 10.8966 15.8477 10.4661 15.8477Z" fill="#22468F"/>
<path d="M10.4661 20.4753C10.897 20.4753 11.2463 20.126 11.2463 19.6951C11.2463 19.2641 10.897 18.9148 10.4661 18.9148C10.0351 18.9148 9.68579 19.2641 9.68579 19.6951C9.68579 20.126 10.0351 20.4753 10.4661 20.4753Z" fill="#22468F"/>
<path d="M7.39892 9.71313C6.96843 9.71313 6.61865 10.0629 6.61865 10.4934C6.61865 10.9239 6.96843 11.2737 7.39892 11.2737C7.82941 11.2737 8.17919 10.9239 8.17919 10.4934C8.15228 10.036 7.82941 9.71313 7.39892 9.71313Z" fill="#22468F"/>
<path d="M7.39892 12.7803C6.96843 12.7803 6.61865 13.13 6.61865 13.5605C6.61865 13.991 6.96843 14.3408 7.39892 14.3408C7.82941 14.3408 8.17919 13.991 8.17919 13.5605C8.17919 13.13 7.82941 12.7803 7.39892 12.7803Z" fill="#22468F"/>
<path d="M7.39892 15.8477C6.96843 15.8477 6.61865 16.1974 6.61865 16.6279C6.61865 17.0584 6.96843 17.4082 7.39892 17.4082C7.82941 17.4082 8.17919 17.0584 8.17919 16.6279C8.15228 16.1974 7.82941 15.8477 7.39892 15.8477Z" fill="#22468F"/>
<path d="M7.39892 18.9417C6.96843 18.9417 6.61865 19.2914 6.61865 19.7219C6.61865 20.1524 6.96843 20.5022 7.39892 20.5022C7.82941 20.5022 8.17919 20.1524 8.17919 19.7219C8.17919 19.2914 7.82941 18.9417 7.39892 18.9417Z" fill="#22468F"/>
<path d="M13.5605 9.71313C13.13 9.71313 12.7803 10.0629 12.7803 10.4934C12.7803 10.9239 13.13 11.2737 13.5605 11.2737C13.991 11.2737 14.3408 10.9239 14.3408 10.4934C14.3139 10.036 13.9641 9.71313 13.5605 9.71313Z" fill="#22468F"/>
<path d="M13.5605 12.7803C13.13 12.7803 12.7803 13.13 12.7803 13.5605C12.7803 13.991 13.13 14.3408 13.5605 14.3408C13.991 14.3408 14.3408 13.991 14.3408 13.5605C14.3408 13.13 13.9641 12.7803 13.5605 12.7803Z" fill="#22468F"/>
<path d="M13.5605 15.8477C13.13 15.8477 12.7803 16.1974 12.7803 16.6279C12.7803 17.0584 13.13 17.4082 13.5605 17.4082C13.991 17.4082 14.3408 17.0584 14.3408 16.6279C14.3139 16.1974 13.9641 15.8477 13.5605 15.8477Z" fill="#22468F"/>
<path d="M13.5605 18.9417C13.13 18.9417 12.7803 19.2914 12.7803 19.7219C12.7803 20.1524 13.13 20.5022 13.5605 20.5022C13.991 20.5022 14.3408 20.1524 14.3408 19.7219C14.3408 19.2914 13.9641 18.9417 13.5605 18.9417Z" fill="#22468F"/>
</svg>
