<svg width="24" height="21" viewBox="0 0 24 21" fill="none" xmlns="http://www.w3.org/2000/svg">
<g clip-path="url(#clip0)">
<path d="M16.9242 2.0596V3.41707C16.9242 3.79154 16.6374 4.11921 16.2071 4.11921H15.49V2.0596C15.49 1.68513 15.2031 1.35747 14.7729 1.35747H9.17923C8.79676 1.35747 8.4621 1.63832 8.4621 2.0596V4.11921H7.74496C7.36249 4.11921 7.02783 3.83835 7.02783 3.41707V2.0596C7.02783 0.936183 7.98401 0 9.13142 0H14.8207C16.0159 0 16.9242 0.936183 16.9242 2.0596Z" fill="#5A5A5A"/>
<path d="M14.821 1.35747H12.0002V0H14.821C15.9684 0 16.9245 0.936183 16.9245 2.0596V3.41707C16.9245 3.79154 16.6377 4.11921 16.2074 4.11921H15.4903V2.0596C15.5381 1.68513 15.2034 1.35747 14.821 1.35747Z" fill="#444444"/>
<path d="M24 3.4637V18.6299C24 19.7533 23.0438 20.6895 21.8964 20.6895H2.10359C0.956175 20.6895 0 19.7533 0 18.6299V3.4637C0 3.27646 0.0956175 3.08922 0.191235 2.99561L3.77689 10.9064H20.1753L23.761 2.99561C23.9522 3.08922 24 3.22965 24 3.4637Z" fill="#5A5A5A"/>
<path d="M24.0002 3.46363V18.6298C24.0002 19.7532 23.0441 20.6894 21.8967 20.6894H12.0002V10.8595H20.2234L23.809 2.94873C23.9524 3.08916 24.0002 3.22959 24.0002 3.46363Z" fill="#444444"/>
<path d="M23.8087 2.94896L21.6095 10.8597C21.3704 11.7491 20.5099 12.4044 19.5537 12.4044H4.44614C3.48997 12.4044 2.67722 11.7959 2.39037 10.8597L0.191162 2.94896C0.334588 2.80853 0.478015 2.76172 0.66925 2.76172H23.2828C23.5218 2.76172 23.6653 2.85534 23.8087 2.94896Z" fill="#6E6E6E"/>
<path d="M23.809 2.94896L21.6098 10.8597C21.3708 11.7491 20.5102 12.4044 19.554 12.4044H12.0002V2.76172H23.3309C23.5222 2.76172 23.6656 2.85534 23.809 2.94896Z" fill="#5A5A5A"/>
<path d="M14.8207 10.3447H9.17929C8.79682 10.3447 8.46216 10.6256 8.46216 11.0469V13.8086C8.46216 14.1831 8.74901 14.5107 9.17929 14.5107H14.8207C15.2032 14.5107 15.5379 14.2299 15.5379 13.8086V11.0469C15.5379 10.6256 15.2032 10.3447 14.8207 10.3447Z" fill="#F7D548"/>
<path d="M15.5381 11.0471V13.8089C15.5381 14.1833 15.2512 14.511 14.821 14.511H12.0002V10.3918H14.821C15.2034 10.345 15.5381 10.6259 15.5381 11.0471Z" fill="#F2C042"/>
</g>
<defs>
<clipPath id="clip0">
<rect width="24" height="20.6897" fill="white"/>
</clipPath>
</defs>
</svg>
