<svg width="24" height="26" viewBox="0 0 24 26" fill="none" xmlns="http://www.w3.org/2000/svg">
<g clip-path="url(#clip0)">
<path d="M19.7891 6.57195C19.6419 6.42719 19.318 6.42719 19.1413 6.57195C18.9646 6.74566 18.9646 7.03518 19.1413 7.20889L22.4689 10.4805H13.1928C12.9572 10.4805 12.7511 10.6831 12.7511 10.9147C12.7511 11.1464 12.9572 11.349 13.1928 11.349H22.4689L19.1413 14.6206C19.0529 14.7075 19.0235 14.8233 19.0235 14.9391C19.0235 15.0549 19.0824 15.1707 19.1413 15.2575C19.2296 15.3444 19.3474 15.3734 19.4652 15.3734C19.583 15.3734 19.7008 15.3155 19.7891 15.2575L23.8824 11.2332C23.9118 11.2043 23.9118 11.1753 23.9413 11.1753L23.9707 11.1174C23.9707 11.0885 24.0002 11.0595 24.0002 11.0595V11.0016C24.0296 10.8568 23.9707 10.7121 23.8824 10.6252L19.7891 6.57195Z" fill="#22468F"/>
<path d="M16.7264 14.3891C16.7264 14.1575 16.5202 13.9549 16.2847 13.9549C16.0491 13.9549 15.8429 14.1575 15.8429 14.3891V19.2241C15.8429 20.1506 15.0773 20.9323 14.1055 20.9323H10.189V3.93747C10.189 3.18472 9.68834 2.48987 8.95215 2.2293L4.82945 0.897512H14.1055C15.0479 0.897512 15.8429 1.65026 15.8429 2.60568V7.44066C15.8429 7.67228 16.0491 7.87494 16.2847 7.87494C16.5202 7.87494 16.7264 7.67228 16.7264 7.44066V2.60568C16.7264 1.18703 15.5485 0 14.1055 0H1.82577C0.82454 0 0 0.810656 0 1.79502V21.135C0 21.8877 0.500613 22.5826 1.23681 22.8431L7.80368 24.9856C7.98037 25.0435 8.15705 25.0724 8.36319 25.0724C9.36442 25.0724 10.189 24.2618 10.189 23.2774V21.8298H14.1055C15.5485 21.8298 16.7264 20.6717 16.7264 19.2241V14.3891ZM9.27607 23.2485C9.27607 23.7406 8.8638 24.146 8.36319 24.146C8.2454 24.146 8.15705 24.146 8.06871 24.117L1.53129 21.9746C1.14847 21.8588 0.912883 21.4824 0.912883 21.106V1.79502C0.912883 1.30284 1.32515 0.897512 1.82577 0.897512C1.94356 0.897512 2.0319 0.897512 2.12025 0.926464L8.65767 3.06891C9.04049 3.18472 9.27607 3.5611 9.27607 3.93747V23.2485Z" fill="#22468F"/>
</g>
<defs>
<clipPath id="clip0">
<rect width="24" height="25.0435" fill="white"/>
</clipPath>
</defs>
</svg>
