<svg width="24" height="19" viewBox="0 0 24 19" fill="none" xmlns="http://www.w3.org/2000/svg">
<g clip-path="url(#clip0)">
<path d="M23.2417 17.9133C22.7459 18.4614 22.0752 18.7787 21.4045 18.7787H2.62441C1.92453 18.7787 1.25382 18.4614 0.787231 17.9133L9.30242 8.33643L10.7313 9.51912C11.4895 10.1537 12.5394 10.1537 13.2976 9.51912L14.7265 8.33643L23.2417 17.9133Z" fill="#F1A33A"/>
<path d="M23.5042 1.21154L14.7266 8.33654L13.2977 9.51923C12.5395 10.1538 11.4897 10.1538 10.7315 9.51923L9.30253 8.33654L0.495728 1.21154C0.991475 0.461538 1.77884 0 2.62452 0H21.4046C22.2503 0 23.0085 0.461538 23.5042 1.21154Z" fill="#F7D667"/>
<path d="M0.495747 1.21143L9.27339 8.33643L0.758202 17.9133C0.262454 17.3653 0 16.6153 0 15.8364V2.9422C0 2.30758 0.17497 1.73066 0.495747 1.21143Z" fill="#F4C244"/>
<path d="M24 2.9422V15.8364C24 16.6153 23.7375 17.3653 23.2418 17.9133L14.7266 8.33643L23.5042 1.21143C23.825 1.70181 24 2.30758 24 2.9422Z" fill="#F4C244"/>
</g>
<defs>
<clipPath id="clip0">
<rect width="24" height="18.75" fill="white"/>
</clipPath>
</defs>
</svg>
