<svg width="24" height="24" viewBox="0 0 24 24" fill="none" xmlns="http://www.w3.org/2000/svg">
<path d="M21.9798 0H1.99327C0.888889 0 0 0.909323 0 2.03909V21.9615C0 23.0637 0.888889 23.9731 1.99327 23.9731H22.0067C23.1111 23.9731 24 23.0637 24 21.934V2.03909C23.9731 0.909323 23.0842 0 21.9798 0ZM23.0842 6.08971V21.934C23.0842 22.5402 22.5993 23.0637 21.9798 23.0637H1.99327C1.40067 23.0637 0.888889 22.5677 0.888889 21.934V6.08971H23.0842ZM1.99327 0.909323H22.0067C22.5993 0.909323 23.1111 1.40532 23.1111 2.03909V5.18039H0.888889V2.03909C0.888889 1.40532 1.37374 0.909323 1.99327 0.909323Z" fill="#22468F"/>
<path d="M3.63605 3.66507C3.96333 3.66507 4.22864 3.39366 4.22864 3.05885C4.22864 2.72405 3.96333 2.45264 3.63605 2.45264C3.30877 2.45264 3.04346 2.72405 3.04346 3.05885C3.04346 3.39366 3.30877 3.66507 3.63605 3.66507Z" fill="#22468F"/>
<path d="M5.54889 3.66507C5.87617 3.66507 6.14148 3.39366 6.14148 3.05885C6.14148 2.72405 5.87617 2.45264 5.54889 2.45264C5.22161 2.45264 4.9563 2.72405 4.9563 3.05885C4.9563 3.39366 5.22161 3.66507 5.54889 3.66507Z" fill="#22468F"/>
<path d="M7.4881 3.66507C7.81538 3.66507 8.08069 3.39366 8.08069 3.05885C8.08069 2.72405 7.81538 2.45264 7.4881 2.45264C7.16082 2.45264 6.89551 2.72405 6.89551 3.05885C6.89551 3.39366 7.16082 3.66507 7.4881 3.66507Z" fill="#22468F"/>
<path d="M16.4311 10.8015C16.2156 10.5535 15.8385 10.526 15.596 10.7464L10.155 15.8166L8.43106 13.5019C8.35025 13.3641 8.18864 13.2815 8.05396 13.2815C7.89234 13.2539 7.75766 13.309 7.62298 13.3917C7.38056 13.5846 7.32669 13.9704 7.51524 14.2184L9.61625 17.0566C9.72399 17.1943 9.85867 17.277 10.0203 17.277C10.0472 17.277 10.0742 17.277 10.0742 17.277C10.2088 17.277 10.3435 17.2219 10.4513 17.1117L16.3772 11.6282C16.6466 11.4353 16.6466 11.0495 16.4311 10.8015Z" fill="#22468F"/>
</svg>
