<svg width="281" height="71" viewBox="0 0 281 71" fill="none" xmlns="http://www.w3.org/2000/svg">
<path d="M9.74472 20.6655C6.6283 22.3783 4.24848 24.6437 2.54862 27.4063C0.848752 30.2242 0.055481 33.4289 0.055481 37.0203C0.055481 42.6009 1.86867 47.1868 5.55171 50.723C9.23476 54.3145 13.9377 56.0825 19.7173 56.0825C22.8337 56.0825 25.6101 55.5853 28.0466 54.5907C30.4831 53.5962 33.0895 51.7728 35.8093 49.1759L30.993 44.3137C28.9532 46.3028 27.0834 47.6289 25.3835 48.4024C23.6836 49.1759 21.8138 49.5075 19.7739 49.5075C17.3941 49.5075 15.1843 48.9549 13.2011 47.9051C11.2179 46.8553 9.68806 45.3635 8.61147 43.4849C7.53489 41.6063 7.02493 39.4514 7.02493 37.0756C7.02493 33.5946 8.21484 30.7215 10.6513 28.3456C13.0878 25.9698 16.0909 24.8094 19.6039 24.8094C23.7969 24.8094 27.5933 26.5223 30.9364 30.0032L35.866 25.4172C33.8262 23.0966 31.3897 21.2733 28.5566 20.0577C25.7235 18.7869 22.777 18.1791 19.7173 18.1791C16.2609 18.1239 12.9178 18.9526 9.74472 20.6655Z" fill="white"/>
<path d="M48.7297 19.007H41.7036V55.1976H48.7297V19.007Z" fill="white"/>
<path d="M55.2458 19.007V55.1976H79.2706V48.4567H62.2719V38.898H79.2706V32.3229H62.2719V25.7478H79.2706V19.007H55.2458Z" fill="white"/>
<path d="M166.814 19.007V55.1976H173.84V38.898H185.173V32.3229H173.84V25.7478H190.782V19.007H166.814Z" fill="white"/>
<path d="M107.829 19.007V42.8209L91.9634 19.007H85.1639V55.1976H92.2467V31.4388L108.112 55.1976H114.912V19.007H107.829Z" fill="white"/>
<path d="M119.727 19.007V25.8031H130.606V55.1976H137.746V25.8031H148.795V19.007H119.727Z" fill="white"/>
<path d="M202.737 19.007H195.711V55.1976H202.737V19.007Z" fill="white"/>
<path d="M216.62 20.6655C213.504 22.3783 211.124 24.6437 209.424 27.4063C207.724 30.2242 206.931 33.4289 206.931 37.0203C206.931 42.6009 208.744 47.1868 212.427 50.723C216.11 54.3145 220.813 56.0825 226.593 56.0825C229.709 56.0825 232.485 55.5853 234.922 54.5907C237.358 53.5962 239.965 51.7728 242.685 49.1759L237.868 44.3137C235.828 46.3028 233.959 47.6289 232.259 48.4024C230.559 49.1759 228.689 49.5075 226.649 49.5075C224.269 49.5075 222.06 48.9549 220.076 47.9051C218.093 46.8553 216.563 45.3635 215.487 43.4849C214.41 41.6063 213.9 39.4514 213.9 37.0756C213.9 33.5946 215.09 30.7215 217.527 28.3456C219.963 25.9698 222.966 24.8094 226.479 24.8094C230.672 24.8094 234.469 26.5223 237.812 30.0032L242.741 25.4172C240.701 23.0966 238.265 21.2733 235.432 20.0577C232.599 18.7869 229.652 18.1791 226.593 18.1791C223.136 18.1239 219.736 18.9526 216.62 20.6655Z" fill="white"/>
<path d="M242.74 55.1981H249.597L252.77 49.1203L255.829 43.153L261.326 32.4892L267.898 45.4183H274.868L261.326 18.897L242.74 55.1981Z" fill="white"/>
<path d="M153.894 19.007V23.5929L160.864 19.007H153.894Z" fill="white"/>
<path d="M153.894 27.7365V55.1972H160.864V23.2058L153.894 27.7365Z" fill="white"/>
<path d="M279.912 55.1985H272.999L269.939 49.1759H276.795L279.912 55.1985Z" fill="white"/>
<path d="M5.32625 12.8183C4.53298 12.8183 3.79637 12.7078 3.17308 12.4868C2.49314 12.2658 1.98318 11.9343 1.47322 11.437C1.01992 10.995 0.623284 10.3872 0.396636 9.72415C0.113324 9.06111 0 8.28757 0 7.40353V0.165405H1.41656V7.29302C1.41656 8.61909 1.75653 9.66889 2.43648 10.3872C3.11642 11.1055 4.07968 11.4922 5.32625 11.4922C6.51615 11.4922 7.42275 11.1607 8.15936 10.4424C8.8393 9.7794 9.17928 8.72959 9.17928 7.34827V0.165405H10.5958V7.29302C10.5958 8.23232 10.4825 9.00586 10.1992 9.66889C9.91589 10.3319 9.57591 10.9397 9.12262 11.3817C8.66932 11.8238 8.1027 12.2105 7.42275 12.4315C6.85613 12.7078 6.11952 12.8183 5.32625 12.8183Z" fill="white"/>
<path d="M15.8658 0.165405H17.2257L25.2717 10.1662V0.165405H26.6883V12.6525H25.555L17.2823 2.43077V12.6525H15.8658V0.165405Z" fill="white"/>
<path d="M33.6572 0.165405H32.2407V12.5973H33.6572V0.165405Z" fill="white"/>
<path d="M38.1334 0.165405H39.7766L44.3095 10.8845L48.8425 0.165405H50.4291L44.9328 12.7078H43.6296L38.1334 0.165405Z" fill="white"/>
<path d="M54.7356 0.165405H63.9715V1.43622H56.2088V5.74594H63.1783V7.01676H56.2088V11.3817H64.0849V12.6525H54.7356V0.165405Z" fill="white"/>
<path d="M68.788 0.165405H74.2842C75.0775 0.165405 75.7574 0.275911 76.3807 0.496922C77.004 0.717934 77.5139 0.994198 77.9106 1.43622C78.2506 1.76774 78.4772 2.09925 78.6472 2.54128C78.8172 2.9833 78.9305 3.42532 78.9305 3.9226V3.97785C78.9305 4.47513 78.8172 4.9724 78.6472 5.35917C78.4772 5.74594 78.2506 6.13271 77.9106 6.40898C77.6273 6.68524 77.2306 6.9615 76.834 7.18252C76.3807 7.40353 75.9274 7.51403 75.4741 7.62454L79.3838 12.7078H77.6273L73.9442 7.84555H73.8876H70.2612V12.7078H68.8446V0.165405H68.788ZM74.1709 6.51948C74.6242 6.51948 75.0775 6.46423 75.4741 6.35372C75.8707 6.24322 76.2107 6.07746 76.494 5.85645C76.7773 5.63544 77.004 5.35917 77.174 5.08291C77.344 4.75139 77.4006 4.41987 77.4006 4.0331V3.9226C77.4006 3.14906 77.1173 2.54128 76.5507 2.09925C75.9841 1.65723 75.1908 1.43622 74.1142 1.43622H70.1479V6.46423H74.1709V6.51948Z" fill="white"/>
<path d="M88.223 12.8187C87.2031 12.8187 86.2398 12.6529 85.4466 12.3214C84.5966 11.9899 83.8033 11.4926 83.0101 10.8296L83.9167 9.77975C84.5966 10.3875 85.2766 10.8296 85.9565 11.1058C86.6365 11.3821 87.4297 11.5478 88.3363 11.5478C89.1863 11.5478 89.8662 11.3268 90.4328 10.9401C90.9428 10.5533 91.2261 10.056 91.2261 9.39298C91.2261 9.11672 91.1694 8.84045 91.0561 8.61944C90.9428 8.39843 90.7728 8.17742 90.5462 8.01166C90.3195 7.8459 89.9795 7.62489 89.5262 7.51438C89.0729 7.34863 88.563 7.23812 87.883 7.07236C87.1464 6.9066 86.5231 6.74084 85.9565 6.51983C85.3899 6.29882 84.9933 6.07781 84.5966 5.80155C84.2566 5.52528 83.9733 5.19377 83.8033 4.807C83.6334 4.42023 83.52 3.9782 83.52 3.48093V3.37042C83.52 2.87315 83.6334 2.43112 83.86 2.04435C84.0867 1.60233 84.37 1.27082 84.7099 0.994551C85.1066 0.718287 85.5032 0.442023 86.0698 0.276264C86.5798 0.110506 87.1464 0 87.7697 0C88.733 0 89.5262 0.110506 90.2062 0.38677C90.8861 0.663034 91.5661 1.0498 92.246 1.54708L91.3961 2.65214C90.7728 2.15486 90.2062 1.82334 89.5829 1.60233C88.9596 1.38132 88.3363 1.27082 87.713 1.27082C86.8631 1.27082 86.1832 1.43657 85.7299 1.82334C85.2199 2.21011 84.9933 2.70739 84.9933 3.25992V3.31517C84.9933 3.59143 85.0499 3.8677 85.1632 4.08871C85.2766 4.30972 85.4465 4.53073 85.6732 4.75174C85.9565 4.97275 86.2965 5.13851 86.7498 5.30427C87.2031 5.47003 87.7697 5.63579 88.5063 5.74629C89.9229 6.07781 90.9995 6.46458 91.6794 7.01711C92.3594 7.56964 92.6993 8.28792 92.6993 9.28247V9.33773C92.6993 9.89026 92.586 10.3323 92.3593 10.7743C92.1327 11.2163 91.8494 11.6031 91.4527 11.8794C91.0561 12.2109 90.6028 12.4319 90.0929 12.5976C89.4129 12.7081 88.8463 12.8187 88.223 12.8187Z" fill="white"/>
<path d="M98.8761 0.165405H97.4595V12.5973H98.8761V0.165405Z" fill="white"/>
<path d="M104.485 0.165405H108.904C109.924 0.165405 110.831 0.331164 111.624 0.662681C112.474 0.994198 113.154 1.43622 113.777 1.98875C114.401 2.54128 114.854 3.20431 115.194 3.97785C115.534 4.75139 115.704 5.52493 115.704 6.40898V6.46423C115.704 7.34827 115.534 8.17707 115.194 8.89535C114.854 9.66889 114.401 10.3319 113.777 10.8845C113.154 11.437 112.474 11.879 111.624 12.2105C110.774 12.542 109.868 12.7078 108.904 12.7078H104.485V0.165405ZM108.904 11.3265C109.698 11.3265 110.434 11.216 111.114 10.9397C111.794 10.6634 112.304 10.3319 112.757 9.88991C113.211 9.44788 113.551 8.95061 113.834 8.34283C114.061 7.73504 114.231 7.12726 114.231 6.40898V6.35372C114.231 5.69069 114.117 5.02766 113.834 4.41987C113.607 3.81209 113.211 3.31482 112.757 2.87279C112.304 2.43077 111.737 2.09925 111.114 1.82299C110.434 1.54673 109.754 1.43622 108.904 1.43622H105.901V11.2712H108.904V11.3265Z" fill="white"/>
<path d="M125.28 0.112061H126.64L132.477 12.6545H130.89L129.417 9.33928H122.447L120.917 12.6545H119.444L125.28 0.112061ZM128.85 8.06847L125.96 1.71439L123.014 8.06847H128.85Z" fill="white"/>
<path d="M136.783 0.165405H141.203C142.223 0.165405 143.129 0.331164 143.922 0.662681C144.772 0.994198 145.452 1.43622 146.076 1.98875C146.699 2.54128 147.152 3.20431 147.492 3.97785C147.832 4.75139 148.002 5.52493 148.002 6.40898V6.46423C148.002 7.34827 147.832 8.17707 147.492 8.89535C147.152 9.66889 146.699 10.3319 146.076 10.8845C145.452 11.437 144.772 11.879 143.922 12.2105C143.072 12.542 142.166 12.7078 141.203 12.7078H136.783V0.165405ZM141.259 11.3265C142.053 11.3265 142.789 11.216 143.469 10.9397C144.149 10.6634 144.659 10.3319 145.112 9.88991C145.566 9.44788 145.906 8.95061 146.189 8.34283C146.416 7.73504 146.586 7.12726 146.586 6.40898V6.35372C146.586 5.69069 146.472 5.02766 146.189 4.41987C145.962 3.81209 145.566 3.31482 145.112 2.87279C144.659 2.43077 144.092 2.09925 143.469 1.82299C142.789 1.54673 142.109 1.43622 141.259 1.43622H138.256V11.2712H141.259V11.3265Z" fill="white"/>
<path d="M230.671 63.4866H233.164C233.731 63.4866 234.241 63.5971 234.694 63.7628C235.148 63.9286 235.544 64.2049 235.884 64.4811C236.224 64.8126 236.451 65.1442 236.677 65.5862C236.847 66.0282 236.961 66.4702 236.961 66.9675C236.961 67.4648 236.847 67.9068 236.677 68.3488C236.507 68.7908 236.224 69.1224 235.884 69.4539C235.544 69.7854 235.148 70.0064 234.694 70.1722C234.241 70.3379 233.731 70.4484 233.164 70.4484H230.671V63.4866ZM233.108 69.7301C233.561 69.7301 233.958 69.6749 234.298 69.5091C234.638 69.3434 234.978 69.1776 235.204 68.9566C235.431 68.7356 235.657 68.4041 235.771 68.0725C235.884 67.741 235.997 67.3543 235.997 67.0227C235.997 66.636 235.941 66.3045 235.771 65.9729C235.657 65.6414 235.431 65.3652 235.204 65.0889C234.978 64.8679 234.638 64.6469 234.298 64.4811C233.958 64.3154 233.504 64.2601 233.108 64.2601H231.464V69.7301H233.108Z" fill="white"/>
<path d="M239.624 63.4866H244.724V64.2049H240.417V66.5807H244.27V67.299H240.417V69.7301H244.78V70.4484H239.624V63.4866Z" fill="white"/>
<path d="M247.444 63.4866H248.237V69.7301H252.204V70.4484H247.444V63.4866Z" fill="white"/>
<path d="M261.212 70.5037C260.646 70.5037 260.136 70.3932 259.626 70.2274C259.172 70.0617 258.719 69.7854 258.266 69.3986L258.776 68.8461C259.172 69.1776 259.512 69.3986 259.909 69.5644C260.306 69.7301 260.702 69.7854 261.212 69.7854C261.666 69.7854 262.062 69.6749 262.345 69.4539C262.629 69.2329 262.799 68.9566 262.799 68.6251C262.799 68.4593 262.799 68.3488 262.742 68.1831C262.685 68.0726 262.572 67.9621 262.459 67.8515C262.345 67.741 262.119 67.6305 261.892 67.5753C261.666 67.4648 261.326 67.4095 260.986 67.3543C260.589 67.2438 260.249 67.1885 259.909 67.078C259.626 66.9675 259.342 66.857 259.172 66.6912C259.002 66.5255 258.832 66.3597 258.719 66.1387C258.606 65.9177 258.549 65.6967 258.549 65.4204C258.549 65.1442 258.606 64.9231 258.719 64.6469C258.832 64.4259 259.002 64.2049 259.229 64.0391C259.456 63.8733 259.682 63.7628 259.966 63.6523C260.249 63.5418 260.589 63.4866 260.929 63.4866C261.439 63.4866 261.892 63.5418 262.289 63.7076C262.685 63.8733 263.082 64.0391 263.422 64.3706L262.969 64.9784C262.629 64.7021 262.289 64.5364 261.949 64.4259C261.609 64.3154 261.269 64.2601 260.872 64.2601C260.419 64.2601 260.022 64.3706 259.739 64.5916C259.456 64.8126 259.342 65.0889 259.342 65.3652C259.342 65.5309 259.342 65.6967 259.399 65.8072C259.456 65.9177 259.569 66.0282 259.682 66.1387C259.796 66.2492 260.022 66.3597 260.249 66.415C260.476 66.5255 260.816 66.5807 261.212 66.6912C262.005 66.857 262.572 67.078 262.969 67.4095C263.365 67.6858 263.535 68.1278 263.535 68.6803C263.535 68.9566 263.479 69.2329 263.365 69.5091C263.252 69.7301 263.082 69.9512 262.855 70.1169C262.629 70.2827 262.402 70.3932 262.119 70.5037C261.892 70.5037 261.609 70.5037 261.212 70.5037Z" fill="white"/>
<path d="M269.146 70.5573C268.692 70.5573 268.296 70.5021 267.956 70.3916C267.616 70.281 267.276 70.06 267.049 69.839C266.766 69.5628 266.596 69.2865 266.426 68.8997C266.313 68.513 266.199 68.0709 266.199 67.6289V63.5955H266.993V67.5737C266.993 68.3472 267.162 68.8997 267.559 69.2865C267.956 69.6733 268.466 69.8943 269.146 69.8943C269.826 69.8943 270.336 69.7285 270.732 69.3418C271.129 68.955 271.299 68.4025 271.299 67.6289V63.5955H272.092V67.5737C272.092 68.0709 272.035 68.513 271.865 68.8997C271.752 69.2865 271.525 69.618 271.242 69.839C270.959 70.1153 270.676 70.281 270.336 70.3916C269.996 70.5021 269.599 70.5573 269.146 70.5573Z" fill="white"/>
<path d="M275.039 63.4866H278.099C278.552 63.4866 278.949 63.5418 279.289 63.6523C279.628 63.7628 279.912 63.9286 280.138 64.1496C280.308 64.3154 280.422 64.5364 280.535 64.7574C280.648 64.9784 280.705 65.2547 280.705 65.5309C280.705 65.8072 280.648 66.0835 280.535 66.3045C280.422 66.5255 280.308 66.7465 280.138 66.9122C279.968 67.078 279.742 67.2438 279.515 67.3543C279.289 67.4648 279.005 67.52 278.722 67.5753L280.932 70.3932H279.912L277.872 67.6858H275.889V70.3932H275.095V63.4866H275.039ZM277.985 67.0228C278.269 67.0228 278.495 66.9675 278.722 66.9122C278.949 66.857 279.119 66.7465 279.289 66.636C279.459 66.5255 279.572 66.3597 279.685 66.194C279.798 66.0282 279.798 65.8072 279.798 65.5862C279.798 65.1442 279.629 64.8126 279.345 64.5916C279.005 64.3706 278.552 64.2049 277.985 64.2049H275.775V67.0228H277.985Z" fill="white"/>
</svg>
