<svg width="185" height="47" viewBox="0 0 185 47" fill="none" xmlns="http://www.w3.org/2000/svg">
<path d="M6.4166 13.6082C4.36436 14.7361 2.7972 16.2279 1.6778 18.0472C0.558398 19.9028 0.0360107 22.0132 0.0360107 24.3782C0.0360107 28.0531 1.23004 31.0731 3.65541 33.4018C6.08077 35.7668 9.17778 36.9311 12.9837 36.9311C15.036 36.9311 16.8643 36.6037 18.4688 35.9487C20.0733 35.2938 21.7897 34.0931 23.5807 32.383L20.4091 29.1811C19.0658 30.491 17.8345 31.3642 16.7151 31.8736C15.5957 32.383 14.3643 32.6013 13.0211 32.6013C11.4539 32.6013 9.99868 32.2374 8.69271 31.5461C7.38674 30.8548 6.37928 29.8724 5.67033 28.6353C4.96137 27.3982 4.62555 25.9792 4.62555 24.4146C4.62555 22.1223 5.40913 20.2303 7.01361 18.6657C8.61808 17.1012 10.5957 16.3371 12.9091 16.3371C15.6703 16.3371 18.1703 17.465 20.3718 19.7573L23.6181 16.7373C22.2748 15.2091 20.6703 14.0084 18.8046 13.208C16.939 12.3711 14.9987 11.9709 12.9837 11.9709C10.7076 11.9345 8.50614 12.4802 6.4166 13.6082Z" fill="white"/>
<path d="M32.0893 12.5171H27.4625V36.3494H32.0893V12.5171Z" fill="white"/>
<path d="M36.3808 12.5171V36.3494H52.2017V31.9104H41.0077V25.6158H52.2017V21.2859H41.0077V16.9561H52.2017V12.5171H36.3808Z" fill="white"/>
<path d="M109.851 12.5171V36.3494H114.478V25.6158H121.941V21.2859H114.478V16.9561H125.635V12.5171H109.851Z" fill="white"/>
<path d="M71.0079 12.5171V28.1991L60.5601 12.5171H56.0825V36.3494H60.7467V20.7037L71.1944 36.3494H75.672V12.5171H71.0079Z" fill="white"/>
<path d="M78.8427 12.5171V16.9924H86.0069V36.3494H90.7084V16.9924H97.9845V12.5171H78.8427Z" fill="white"/>
<path d="M133.507 12.5171H128.88V36.3494H133.507V12.5171Z" fill="white"/>
<path d="M142.65 13.6082C140.598 14.7361 139.03 16.2279 137.911 18.0472C136.792 19.9028 136.269 22.0132 136.269 24.3782C136.269 28.0531 137.463 31.0731 139.889 33.4018C142.314 35.7668 145.411 36.9311 149.217 36.9311C151.269 36.9311 153.098 36.6037 154.702 35.9487C156.307 35.2938 158.023 34.0931 159.814 32.383L156.642 29.1811C155.299 30.491 154.068 31.3642 152.948 31.8736C151.829 32.383 150.598 32.6013 149.254 32.6013C147.687 32.6013 146.232 32.2374 144.926 31.5461C143.62 30.8548 142.612 29.8724 141.904 28.6353C141.195 27.3982 140.859 25.9792 140.859 24.4146C140.859 22.1223 141.642 20.2303 143.247 18.6657C144.851 17.1012 146.829 16.3371 149.142 16.3371C151.904 16.3371 154.404 17.465 156.605 19.7573L159.851 16.7373C158.508 15.2091 156.904 14.0084 155.038 13.208C153.172 12.3711 151.232 11.9709 149.217 11.9709C146.941 11.9345 144.702 12.4802 142.65 13.6082Z" fill="white"/>
<path d="M159.85 36.3488H164.365L166.455 32.3465L168.469 28.4169L172.089 21.3945L176.417 29.9086H181.007L172.089 12.4437L159.85 36.3488Z" fill="white"/>
<path d="M101.343 12.5171V15.537L105.933 12.5171H101.343Z" fill="white"/>
<path d="M101.343 18.2646V36.3481H105.933V15.281L101.343 18.2646Z" fill="white"/>
<path d="M184.329 36.3494H179.776L177.761 32.3834H182.276L184.329 36.3494Z" fill="#FE8926"/>
<path d="M3.50746 8.44151C2.98507 8.44151 2.5 8.36874 2.08955 8.2232C1.64179 8.07766 1.30597 7.85934 0.970148 7.53188C0.671641 7.24079 0.410447 6.84056 0.261194 6.40393C0.0746267 5.96731 0 5.45792 0 4.87575V0.109283H0.932834V4.80298C0.932834 5.67623 1.15671 6.36755 1.60448 6.84056C2.05224 7.31356 2.68656 7.56826 3.50746 7.56826C4.29104 7.56826 4.88805 7.34995 5.37313 6.87694C5.82089 6.44032 6.04477 5.749 6.04477 4.83937V0.109283H6.9776V4.80298C6.9776 5.42153 6.90297 5.93093 6.71641 6.36755C6.52984 6.80417 6.30596 7.20441 6.00745 7.49549C5.70895 7.78657 5.33581 8.04127 4.88805 8.18681C4.51492 8.36874 4.02984 8.44151 3.50746 8.44151Z" fill="white"/>
<path d="M10.4476 0.109283H11.3432L16.6416 6.69502V0.109283H17.5745V8.33235H16.8282L11.3805 1.60108V8.33235H10.4476V0.109283Z" fill="white"/>
<path d="M22.1638 0.109283H21.231V8.29597H22.1638V0.109283Z" fill="white"/>
<path d="M25.1113 0.109283H26.1934L29.1785 7.16803L32.1636 0.109283H33.2083L29.5889 8.36874H28.7307L25.1113 0.109283Z" fill="white"/>
<path d="M36.0451 0.109283H42.1272V0.946144H37.0153V3.78419H41.6048V4.62106H37.0153V7.49549H42.2018V8.33235H36.0451V0.109283Z" fill="white"/>
<path d="M45.2979 0.109283H48.9173C49.4397 0.109283 49.8875 0.182054 50.2979 0.327595C50.7084 0.473136 51.0442 0.655062 51.3054 0.946145C51.5292 1.16446 51.6785 1.38277 51.7904 1.67385C51.9024 1.96493 51.977 2.25601 51.977 2.58348V2.61987C51.977 2.94733 51.9024 3.2748 51.7904 3.5295C51.6785 3.7842 51.5292 4.03889 51.3054 4.22082C51.1188 4.40274 50.8576 4.58467 50.5964 4.73021C50.2979 4.87575 49.9994 4.94852 49.7009 5.02129L52.2755 8.36874H51.1188L48.6934 5.16684H48.6561H46.2681V8.36874H45.3352V0.109283H45.2979ZM48.8427 4.29359C49.1412 4.29359 49.4397 4.2572 49.7009 4.18443C49.9621 4.11166 50.186 4.00251 50.3725 3.85697C50.5591 3.71142 50.7083 3.5295 50.8203 3.34757C50.9322 3.12926 50.9695 2.91095 50.9695 2.65625V2.58348C50.9695 2.07409 50.783 1.67385 50.4098 1.38277C50.0367 1.09169 49.5143 0.946145 48.8054 0.946145H46.1934V4.2572H48.8427V4.29359Z" fill="white"/>
<path d="M58.0967 8.44135C57.425 8.44135 56.7907 8.33219 56.2683 8.11388C55.7086 7.89557 55.1862 7.5681 54.6638 7.13148L55.2608 6.44016C55.7086 6.8404 56.1564 7.13148 56.6041 7.31341C57.0519 7.49533 57.5743 7.60449 58.1713 7.60449C58.731 7.60449 59.1787 7.45895 59.5519 7.20425C59.8877 6.94955 60.0743 6.62209 60.0743 6.18546C60.0743 6.00354 60.0369 5.82161 59.9623 5.67607C59.8877 5.53053 59.7758 5.38499 59.6265 5.27583C59.4773 5.16668 59.2534 5.02113 58.9549 4.94836C58.6564 4.83921 58.3205 4.76644 57.8728 4.65728C57.3877 4.54813 56.9772 4.43897 56.6041 4.29343C56.231 4.14789 55.9698 4.00235 55.7086 3.82042C55.4847 3.63849 55.2981 3.42018 55.1862 3.16549C55.0743 2.91079 54.9996 2.61971 54.9996 2.29224V2.21947C54.9996 1.892 55.0743 1.60092 55.2235 1.34622C55.3728 1.05514 55.5593 0.83683 55.7832 0.654904C56.0444 0.472978 56.3056 0.291052 56.6787 0.181896C57.0146 0.07274 57.3877 -3.05176e-05 57.7981 -3.05176e-05C58.4325 -3.05176e-05 58.9549 0.07274 59.4026 0.254666C59.8504 0.436593 60.2981 0.691289 60.7459 1.01876L60.1862 1.74646C59.7758 1.41899 59.4026 1.20068 58.9922 1.05514C58.5817 0.909601 58.1713 0.83683 57.7608 0.83683C57.2011 0.83683 56.7534 0.945986 56.4549 1.20068C56.119 1.45538 55.9698 1.78285 55.9698 2.1467V2.18308C55.9698 2.36501 56.0071 2.54694 56.0817 2.69248C56.1564 2.83802 56.2683 2.98356 56.4175 3.1291C56.6041 3.27464 56.828 3.3838 57.1265 3.49295C57.425 3.60211 57.7981 3.71127 58.2832 3.78404C59.2161 4.00235 59.925 4.25704 60.3728 4.6209C60.8205 4.98475 61.0444 5.45776 61.0444 6.11269V6.14908C61.0444 6.51293 60.9698 6.80401 60.8205 7.09509C60.6713 7.38618 60.4847 7.64087 60.2235 7.8228C59.9623 8.04111 59.6638 8.18665 59.328 8.29581C58.8802 8.36858 58.5071 8.44135 58.0967 8.44135Z" fill="white"/>
<path d="M65.1118 0.109283H64.179V8.29597H65.1118V0.109283Z" fill="white"/>
<path d="M68.8054 0.109283H71.7158C72.3874 0.109283 72.9845 0.218439 73.5069 0.436751C74.0666 0.655062 74.5143 0.946145 74.9248 1.31C75.3352 1.67385 75.6337 2.11047 75.8576 2.61987C76.0815 3.12926 76.1934 3.63865 76.1934 4.22082V4.2572C76.1934 4.83937 76.0815 5.38515 75.8576 5.85816C75.6337 6.36755 75.3352 6.80417 74.9248 7.16803C74.5143 7.53188 74.0666 7.82296 73.5069 8.04127C72.9471 8.25958 72.3501 8.36874 71.7158 8.36874H68.8054V0.109283ZM71.7158 7.45911C72.2382 7.45911 72.7233 7.38634 73.171 7.20441C73.6188 7.02248 73.9546 6.80417 74.2531 6.51309C74.5516 6.22201 74.7755 5.89454 74.9621 5.4943C75.1113 5.09406 75.2233 4.69383 75.2233 4.22082V4.18443C75.2233 3.74781 75.1486 3.31119 74.9621 2.91095C74.8128 2.51071 74.5516 2.18324 74.2531 1.89216C73.9546 1.60108 73.5815 1.38277 73.171 1.20084C72.7233 1.01892 72.2755 0.946145 71.7158 0.946145H69.7382V7.42272H71.7158V7.45911Z" fill="white"/>
<path d="M82.4995 0.0732727H83.395L87.2383 8.33272H86.1935L85.2233 6.14961H80.6338L79.6263 8.33272H78.6562L82.4995 0.0732727ZM84.8502 5.31275L82.9472 1.12844L81.0069 5.31275H84.8502Z" fill="white"/>
<path d="M90.0749 0.109283H92.9853C93.657 0.109283 94.254 0.218439 94.7764 0.436751C95.3361 0.655062 95.7838 0.946145 96.1943 1.31C96.6047 1.67385 96.9032 2.11047 97.1271 2.61987C97.351 3.12926 97.463 3.63865 97.463 4.22082V4.2572C97.463 4.83937 97.351 5.38515 97.1271 5.85816C96.9032 6.36755 96.6047 6.80417 96.1943 7.16803C95.7838 7.53188 95.3361 7.82296 94.7764 8.04127C94.2167 8.25958 93.6197 8.36874 92.9853 8.36874H90.0749V0.109283ZM93.0227 7.45911C93.545 7.45911 94.0301 7.38634 94.4779 7.20441C94.9256 7.02248 95.2615 6.80417 95.56 6.51309C95.8585 6.22201 96.0824 5.89454 96.2689 5.4943C96.4182 5.09406 96.5301 4.69383 96.5301 4.22082V4.18443C96.5301 3.74781 96.4555 3.31119 96.2689 2.91095C96.1197 2.51071 95.8585 2.18324 95.56 1.89216C95.2615 1.60108 94.8883 1.38277 94.4779 1.20084C94.0301 1.01892 93.5824 0.946145 93.0227 0.946145H91.045V7.42272H93.0227V7.45911Z" fill="white"/>
<path d="M151.903 41.8072H153.545C153.918 41.8072 154.253 41.88 154.552 41.9891C154.85 42.0983 155.112 42.2802 155.336 42.4621C155.559 42.6804 155.709 42.8987 155.858 43.1898C155.97 43.4809 156.045 43.772 156.045 44.0995C156.045 44.4269 155.97 44.718 155.858 45.0091C155.746 45.3002 155.559 45.5185 155.336 45.7368C155.112 45.9551 154.85 46.1006 154.552 46.2098C154.253 46.319 153.918 46.3917 153.545 46.3917H151.903V41.8072ZM153.507 45.9187C153.806 45.9187 154.067 45.8823 154.291 45.7732C154.515 45.664 154.739 45.5549 154.888 45.4093C155.037 45.2638 155.186 45.0455 155.261 44.8272C155.336 44.6088 155.41 44.3542 155.41 44.1358C155.41 43.8811 155.373 43.6628 155.261 43.4445C155.186 43.2262 155.037 43.0443 154.888 42.8624C154.739 42.7168 154.515 42.5713 154.291 42.4621C154.067 42.353 153.768 42.3166 153.507 42.3166H152.425V45.9187H153.507Z" fill="#FE8926"/>
<path d="M157.797 41.8072H161.156V42.2802H158.32V43.8448H160.857V44.3178H158.32V45.9187H161.193V46.3917H157.797V41.8072Z" fill="#FE8926"/>
<path d="M162.947 41.8072H163.47V45.9187H166.081V46.3917H162.947V41.8072Z" fill="#FE8926"/>
<path d="M172.014 46.4281C171.641 46.4281 171.305 46.3553 170.969 46.2462C170.671 46.137 170.372 45.9551 170.074 45.7004L170.41 45.3366C170.671 45.5549 170.895 45.7004 171.156 45.8096C171.417 45.9187 171.678 45.9551 172.014 45.9551C172.313 45.9551 172.574 45.8823 172.76 45.7368C172.947 45.5913 173.059 45.4093 173.059 45.191C173.059 45.0819 173.059 45.0091 173.022 44.8999C172.984 44.8272 172.91 44.7544 172.835 44.6816C172.76 44.6089 172.611 44.5361 172.462 44.4997C172.313 44.4269 172.089 44.3905 171.865 44.3542C171.604 44.2814 171.38 44.245 171.156 44.1722C170.969 44.0995 170.783 44.0267 170.671 43.9175C170.559 43.8084 170.447 43.6992 170.372 43.5537C170.298 43.4081 170.26 43.2626 170.26 43.0807C170.26 42.8987 170.298 42.7532 170.372 42.5713C170.447 42.4257 170.559 42.2802 170.708 42.171C170.857 42.0619 171.007 41.9891 171.193 41.9163C171.38 41.8436 171.604 41.8072 171.828 41.8072C172.163 41.8072 172.462 41.8436 172.723 41.9527C172.984 42.0619 173.245 42.171 173.469 42.3894L173.171 42.7896C172.947 42.6077 172.723 42.4985 172.499 42.4257C172.275 42.353 172.051 42.3166 171.79 42.3166C171.492 42.3166 171.231 42.3894 171.044 42.5349C170.857 42.6804 170.783 42.8624 170.783 43.0443C170.783 43.1534 170.783 43.2626 170.82 43.3354C170.857 43.4081 170.932 43.4809 171.007 43.5537C171.081 43.6265 171.231 43.6992 171.38 43.7356C171.529 43.8084 171.753 43.8448 172.014 43.9175C172.537 44.0267 172.91 44.1722 173.171 44.3905C173.432 44.5725 173.544 44.8636 173.544 45.2274C173.544 45.4093 173.507 45.5913 173.432 45.7732C173.357 45.9187 173.245 46.0643 173.096 46.1734C172.947 46.2826 172.798 46.3553 172.611 46.4281C172.462 46.4281 172.275 46.4281 172.014 46.4281Z" fill="#FE8926"/>
<path d="M177.239 46.4638C176.94 46.4638 176.679 46.4274 176.455 46.3546C176.231 46.2818 176.007 46.1363 175.858 45.9907C175.671 45.8088 175.559 45.6269 175.448 45.3722C175.373 45.1175 175.298 44.8264 175.298 44.5353V41.8792H175.821V44.499C175.821 45.0083 175.933 45.3722 176.194 45.6269C176.455 45.8816 176.791 46.0271 177.239 46.0271C177.686 46.0271 178.022 45.918 178.283 45.6633C178.545 45.4086 178.656 45.0447 178.656 44.5353V41.8792H179.179V44.499C179.179 44.8264 179.142 45.1175 179.03 45.3722C178.955 45.6269 178.806 45.8452 178.619 45.9907C178.433 46.1727 178.246 46.2818 178.022 46.3546C177.798 46.4274 177.537 46.4638 177.239 46.4638Z" fill="#FE8926"/>
<path d="M181.12 41.8072H183.134C183.433 41.8072 183.694 41.8436 183.918 41.9163C184.142 41.9891 184.328 42.0983 184.478 42.2438C184.59 42.353 184.664 42.4985 184.739 42.644C184.814 42.7896 184.851 42.9715 184.851 43.1534C184.851 43.3354 184.814 43.5173 184.739 43.6628C184.664 43.8084 184.59 43.9539 184.478 44.0631C184.366 44.1722 184.217 44.2814 184.067 44.3542C183.918 44.4269 183.731 44.4633 183.545 44.4997L185 46.3553H184.328L182.985 44.5725H181.679V46.3553H181.157V41.8072H181.12ZM183.06 44.1358C183.246 44.1358 183.396 44.0995 183.545 44.0631C183.694 44.0267 183.806 43.9539 183.918 43.8811C184.03 43.8084 184.105 43.6992 184.179 43.5901C184.254 43.4809 184.254 43.3354 184.254 43.1898C184.254 42.8987 184.142 42.6804 183.955 42.5349C183.731 42.3894 183.433 42.2802 183.06 42.2802H181.605V44.1358H183.06Z" fill="#FE8926"/>
</svg>
