<svg width="24" height="24" viewBox="0 0 24 24" fill="none" xmlns="http://www.w3.org/2000/svg">
<path d="M12 0C5.37391 0 0 5.37391 0 12C0 18.6261 5.37391 24 12 24C18.6 24 24 18.6 24 12C24 5.37391 18.6 0 12 0ZM22.9826 12C22.9826 18.0522 18.0522 22.9826 12 22.9826C5.94783 22.9826 1.01739 18.0522 1.01739 12C1.01739 5.94783 5.94783 1.01739 12 1.01739C18.0522 1.01739 22.9565 5.94783 22.9826 12Z" fill="#22468F"/>
<path d="M10.8261 11.5565L9.9652 11.4C9.49563 11.2956 8.3478 11.0869 8.3478 10.1478C8.3478 9.41735 8.99998 8.9217 9.9652 8.9217C10.7739 8.9217 11.3217 9.23474 11.6608 9.86083C11.8435 10.1478 12 10.226 12.313 10.226C12.6261 10.226 12.8087 10.0695 12.8087 9.80865C12.8087 9.7043 12.7826 9.59996 12.7565 9.49561C12.4174 8.58257 11.4 8.08691 9.9652 8.08691C8.19128 8.08691 7.06954 8.97387 7.06954 10.3304C7.06954 11.4 7.77389 12.0521 9.26085 12.3391L10.1217 12.4956C10.9826 12.6521 11.7913 12.9391 11.7913 13.7739C11.7913 14.5304 11.0608 15.0521 10.0174 15.0521C9.1565 15.0521 8.50433 14.713 8.1652 14.113C7.9565 13.8 7.79998 13.7478 7.5652 13.7478C7.25215 13.7478 7.04346 13.9304 7.04346 14.2434C7.04346 14.3739 7.06954 14.5043 7.12172 14.6087C7.46085 15.4173 8.53041 15.913 9.99128 15.913C11.9217 15.913 13.0956 15.0521 13.0956 13.5913C13.0695 12.7304 12.8087 11.9478 10.8261 11.5565Z" fill="#22468F"/>
<path d="M16.4345 8.08691C16.2258 8.08691 16.0171 8.113 15.8606 8.58257L13.4345 17.0087C13.4084 17.0869 13.4084 17.1913 13.4084 17.2695C13.4084 17.5565 13.5911 17.713 13.9302 17.713C14.2171 17.713 14.3737 17.6347 14.5041 17.2434L16.9302 8.81735C16.9563 8.73909 16.9563 8.66083 16.9563 8.58257C16.9824 8.24344 16.7737 8.08691 16.4345 8.08691Z" fill="#22468F"/>
</svg>
