<svg width="24" height="24" viewBox="0 0 24 24" fill="none" xmlns="http://www.w3.org/2000/svg">
<path d="M11.9871 0C5.38511 0 0 5.38511 0 11.9871C0 14.7573 0.983819 17.4757 2.74434 19.5987L2.77023 19.6246C3.98706 21.1003 5.54045 22.2654 7.30097 23.0162L7.35275 23.0421C7.4822 23.0939 7.63754 23.1456 7.76699 23.1974H7.79288C7.84466 23.2233 7.89644 23.2233 7.94822 23.2492C8.07767 23.301 8.20712 23.3269 8.31068 23.3786C8.38835 23.4045 8.46602 23.4304 8.54369 23.4563C8.64725 23.4822 8.7767 23.5081 8.88026 23.5599C8.98382 23.5858 9.08738 23.6117 9.16505 23.6375C9.26861 23.6634 9.37217 23.6893 9.47573 23.7152C9.57929 23.7411 9.70874 23.767 9.8123 23.7929H9.86408C9.94175 23.8188 10.0194 23.8188 10.0712 23.8188C10.2006 23.8447 10.3042 23.8447 10.4337 23.8706L10.5372 23.8964C10.589 23.8964 10.6408 23.9223 10.6926 23.9223C10.8479 23.9482 10.9773 23.9482 11.1327 23.9482H11.2104C11.2621 23.9482 11.288 23.9482 11.3398 23.9482C11.5469 23.9482 11.7799 23.9741 11.9871 23.9741C12.1942 23.9741 12.4013 23.9741 12.6343 23.9482C12.6861 23.9482 12.712 23.9482 12.7638 23.9482H12.8414C12.9968 23.9482 13.1262 23.9223 13.2557 23.9223C13.3074 23.9223 13.3592 23.8964 13.411 23.8964L13.5405 23.8706C13.644 23.8447 13.7735 23.8447 13.877 23.8188C13.9547 23.8188 14.0065 23.7929 14.0841 23.7929H14.1618C14.2654 23.767 14.3948 23.7411 14.4984 23.7152C14.6019 23.6893 14.7055 23.6634 14.8091 23.6375C14.9126 23.6117 15.0162 23.5858 15.0939 23.5599C15.1974 23.534 15.3269 23.5081 15.4304 23.4563C15.5081 23.4304 15.5858 23.4045 15.6634 23.3786C15.7929 23.3269 15.9223 23.301 16.0259 23.2492L16.2071 23.1974C16.3625 23.1456 16.4919 23.0939 16.6214 23.0421L16.6731 23.0162C18.4337 22.2654 19.9871 21.1003 21.2039 19.6246C22.9644 17.4757 23.9482 14.7573 23.9482 11.9871C24 5.38511 18.6149 0 11.9871 0ZM13.8511 12.6602L13.7735 12.6861C12.6602 13.2039 11.3139 13.2039 10.2006 12.6861L10.1489 12.6602C9.99353 12.5825 9.83819 12.5049 9.68285 12.4013C8.46602 11.5987 7.7411 10.2783 7.7411 8.82848C7.7411 6.47249 9.65696 4.55663 12.0129 4.55663C14.3689 4.55663 16.2589 6.47249 16.2589 8.82848C16.2589 10.2783 15.534 11.5987 14.3172 12.4013C14.1618 12.5049 14.0065 12.5825 13.8511 12.6602ZM17.2427 8.82848C17.2427 5.9288 14.8867 3.57282 11.9871 3.57282C9.08738 3.57282 6.73139 5.9288 6.73139 8.82848C6.73139 10.2524 7.32686 11.6246 8.36246 12.6343C5.82524 13.6699 3.85761 15.7152 2.95146 18.2783C1.65696 16.4401 0.983819 14.2654 0.983819 12.0129C0.983819 5.95469 5.9288 1.00971 11.9871 1.00971C18.0453 1.00971 22.9903 5.95469 22.9903 12.0129C22.9903 14.2654 22.3172 16.4401 21.0227 18.2783C20.0906 15.7152 18.123 13.6699 15.6117 12.6343C16.6472 11.6246 17.2427 10.2524 17.2427 8.82848ZM16.7508 21.9288C16.6214 22.0065 16.466 22.0583 16.3366 22.11L16.233 22.1618C16.1036 22.2136 15.9741 22.2654 15.8447 22.3172C15.7929 22.343 15.7411 22.3689 15.6893 22.3689C15.5858 22.4207 15.4563 22.4466 15.3528 22.4725C15.2751 22.4984 15.1974 22.5243 15.1456 22.5502C15.0421 22.5761 14.9385 22.6019 14.835 22.6278C14.7573 22.6537 14.6537 22.6796 14.5761 22.7055H14.5502C14.4725 22.7314 14.3948 22.7314 14.3172 22.7573C14.2136 22.7832 14.11 22.8091 14.0065 22.8091H13.9547C13.877 22.8091 13.8252 22.835 13.7476 22.835C13.644 22.8608 13.5146 22.8608 13.411 22.8867H13.3333C13.2816 22.8867 13.2298 22.9126 13.178 22.9126C13.0485 22.9385 12.9191 22.9385 12.7896 22.9385H12.712C12.6861 22.9385 12.6343 22.9385 12.6084 22.9385C12.2201 22.9644 11.8317 22.9644 11.4434 22.9385C11.4175 22.9385 11.3657 22.9385 11.3398 22.9385H11.2621C11.1327 22.9385 11.0032 22.9126 10.8738 22.9126C10.822 22.9126 10.7702 22.9126 10.7184 22.8867H10.6149C10.5113 22.8608 10.3819 22.8608 10.2783 22.835C10.2006 22.835 10.1489 22.8091 10.0712 22.8091H10.0194C9.91586 22.7832 9.8123 22.7832 9.70874 22.7573C9.63107 22.7314 9.52751 22.7314 9.42395 22.7055H9.39806C9.32039 22.6796 9.24272 22.6796 9.16505 22.6537C9.06149 22.6278 8.95793 22.6019 8.85437 22.5761C8.7767 22.5502 8.69903 22.5243 8.64725 22.4984C8.54369 22.4725 8.41424 22.4207 8.31068 22.3689L8.15534 22.3172C8.02589 22.2654 7.89644 22.2136 7.76699 22.1618L7.66343 22.11C7.50809 22.0583 7.37864 21.9806 7.2233 21.9029C5.87702 21.2557 4.68608 20.3495 3.70227 19.1845C4.45307 16.4401 6.60194 14.2136 9.32039 13.3074C9.34628 13.3333 9.37217 13.3333 9.39806 13.3592L9.47573 13.411C9.50162 13.411 9.52751 13.4369 9.5534 13.4369C9.68285 13.5146 9.8123 13.5663 9.91586 13.6181C9.99353 13.644 10.0971 13.6958 10.1748 13.7217L10.2783 13.7476C11.4175 14.1618 12.6343 14.1618 13.7735 13.7476L13.877 13.7217C13.9547 13.6958 14.0583 13.6699 14.1359 13.6181C14.2654 13.5663 14.3689 13.5146 14.4984 13.4369L14.6537 13.3592C14.6796 13.3333 14.7055 13.3333 14.7314 13.3074C17.424 14.2136 19.5728 16.4401 20.3495 19.1845C19.3139 20.3495 18.123 21.2557 16.7508 21.9288L16.8285 22.0065L16.7508 21.9288Z" fill="#22468F"/>
</svg>
