<svg width="27" height="27" viewBox="0 0 27 27" fill="none" xmlns="http://www.w3.org/2000/svg">
<g clip-path="url(#clip0)">
<path d="M3.95405 3.95405C6.50384 1.40426 9.89408 0 13.5 0C17.1061 0 20.4962 1.40426 23.046 3.95405C25.5957 6.50384 27 9.89388 27 13.5C27 17.1059 25.5957 20.4962 23.046 23.046C20.4962 25.5957 17.1061 27 13.5 27C9.89408 27 6.50384 25.5957 3.95405 23.046C1.40426 20.4962 0 17.1059 0 13.5C0 9.89388 1.40426 6.50384 3.95405 3.95405ZM20.2321 23.329C19.6674 20.078 16.8503 17.68 13.5 17.68C10.1495 17.68 7.33255 20.078 6.76792 23.329C8.68469 24.6459 11.0038 25.418 13.5 25.418C15.9962 25.418 18.3153 24.6459 20.2321 23.329ZM17.7925 11.8055C17.7925 9.43842 15.8669 7.513 13.5 7.513C11.1331 7.513 9.2075 9.43863 9.2075 11.8055C9.2075 14.1724 11.1331 16.098 13.5 16.098C15.8669 16.098 17.7925 14.1724 17.7925 11.8055ZM5.39765 22.2317C5.82344 20.7182 6.66904 19.3451 7.85433 18.2725C8.58149 17.6143 9.40917 17.095 10.2991 16.729C8.69067 15.6798 7.62527 13.8648 7.62527 11.8055C7.62527 8.56625 10.2607 5.93097 13.5 5.93097C16.7393 5.93097 19.3745 8.56625 19.3745 11.8055C19.3745 13.8648 18.3091 15.6798 16.7009 16.729C17.5906 17.095 18.4185 17.6141 19.1457 18.2723C20.3307 19.3449 21.1766 20.718 21.6023 22.2315C23.9476 20.0535 25.418 16.9454 25.418 13.5C25.418 6.92839 20.0716 1.58203 13.5 1.58203C6.92839 1.58203 1.58203 6.92839 1.58203 13.5C1.58203 16.9457 3.05241 20.0537 5.39765 22.2317Z" fill="white"/>
</g>
<defs>
<clipPath id="clip0">
<rect width="27" height="27" fill="white" transform="matrix(-1 0 0 1 27 0)"/>
</clipPath>
</defs>
</svg>
