<svg width="24" height="24" viewBox="0 0 24 24" fill="none" xmlns="http://www.w3.org/2000/svg">
<g clip-path="url(#clip0)">
<path d="M6.65868 11.976C6.65868 9.10176 8.95808 6.75446 11.7844 6.61074V5.36523H0V18.5868H11.7844V17.3413C8.91018 17.2455 6.65868 14.8503 6.65868 11.976Z" fill="#7DB5E3"/>
<path d="M11.7844 0H22.994H1.00599C0.431138 0 0 0.431138 0 1.00599V5.36527H11.7844V0ZM5.79641 3.88024H1.48503V1.48503H5.79641V3.88024ZM6.75449 3.88024V1.48503H11.0659V3.88024H6.75449Z" fill="#675D66"/>
<path d="M5.79661 1.48486H1.48523V3.88007H5.79661V1.48486Z" fill="#F1F1F1"/>
<path d="M11.066 1.48486H6.75464V3.88007H11.066V1.48486Z" fill="#F1F1F1"/>
<path d="M0 18.5869V22.9941C0 23.5689 0.431138 24.0001 1.00599 24.0001H11.7844V18.5869H0ZM5.79641 22.4672H1.48503V20.0719H5.79641V22.4672ZM11.3533 22.4672H7.04192V20.0719H11.3533V22.4672Z" fill="#455869"/>
<path d="M5.79661 20.0718H1.48523V22.467H5.79661V20.0718Z" fill="#F1F1F1"/>
<path d="M11.3532 20.0718H7.04187V22.467H11.3532V20.0718Z" fill="#F1F1F1"/>
<path d="M6.65857 11.9761C6.65857 14.8503 8.95797 17.1976 11.7843 17.3413V14.0838L10.0598 15.1377V8.86228L11.7843 9.91618V6.65869C8.91007 6.7545 6.65857 9.10181 6.65857 11.9761Z" fill="#EC6B6E"/>
<path d="M10.0118 8.8623V15.1378L11.7843 14.0839V9.9162L10.0118 8.8623Z" fill="white"/>
<path d="M24.0001 5.36523H11.7845V6.61074C11.8325 6.61074 11.9283 6.61074 11.9762 6.61074C14.9462 6.61074 17.3414 9.00595 17.3414 11.976C17.3414 14.9461 14.9462 17.3413 11.9762 17.3413C11.9283 17.3413 11.8325 17.3413 11.7845 17.3413V18.5868H24.0001V5.36523Z" fill="#4287C7"/>
<path d="M11.7845 5.36527H24.0001V1.00599C24.0001 0.479042 23.5211 0 22.9941 0H11.7845V5.36527ZM17.8684 1.48503H22.1798V3.88024H17.8684V1.48503ZM12.3115 1.48503H16.6229V3.88024H12.3115V1.48503Z" fill="#534E54"/>
<path d="M16.6227 1.48486H12.3113V3.88007H16.6227V1.48486Z" fill="#DFE6F3"/>
<path d="M22.1797 1.48486H17.8683V3.88007H22.1797V1.48486Z" fill="#DFE6F3"/>
<path d="M11.7845 24.0001H22.9941C23.569 24.0001 24.0001 23.5689 24.0001 22.9941V18.5869H11.7845V24.0001ZM18.1558 20.0719H22.4672V22.4672H18.1558V20.0719ZM16.9103 20.0719V22.4672H12.5989V20.0719H16.9103Z" fill="#534E54"/>
<path d="M16.9103 20.0718H12.5989V22.467H16.9103V20.0718Z" fill="#DFE6F3"/>
<path d="M22.4669 20.0718H18.1555V22.467H22.4669V20.0718Z" fill="#DFE6F3"/>
<path d="M15.2816 11.9761L11.7845 14.0839V17.3414C11.8325 17.3414 11.9283 17.3414 11.9762 17.3414C14.9462 17.3414 17.3414 14.9462 17.3414 11.9761C17.3414 9.00605 14.9462 6.61084 11.9762 6.61084C11.9283 6.61084 11.8325 6.61084 11.7845 6.61084V9.86832L15.2816 11.9761Z" fill="#E73A78"/>
<path d="M11.7845 9.91602V14.0837L15.2816 11.9759L11.7845 9.91602Z" fill="#DFE6F3"/>
</g>
<defs>
<clipPath id="clip0">
<rect width="24" height="24" fill="white"/>
</clipPath>
</defs>
</svg>
