<svg width="93" height="93" viewBox="0 0 93 93" fill="none" xmlns="http://www.w3.org/2000/svg">
<g filter="url(#filter0_d)">
<circle cx="46.5" cy="46.5" r="36.5" fill="#1BD741"/>
<path d="M54.6241 49.0688L54.6104 49.1793C51.2661 47.5668 50.9171 47.3504 50.4836 47.9777C50.1848 48.4128 49.3111 49.398 49.0487 49.6895C48.7818 49.9767 48.5172 49.9988 48.0655 49.8C47.6092 49.5791 46.1447 49.1152 44.4109 47.6132C43.0604 46.4425 42.1548 45.0068 41.8856 44.565C41.4385 43.8206 42.3715 43.7146 43.2201 42.1596C43.373 41.8503 43.2954 41.6074 43.1814 41.3887C43.0673 41.1678 42.1594 39.0031 41.7784 38.1395C41.4134 37.2803 41.037 37.3885 40.7564 37.3885C39.8804 37.3156 39.2394 37.3266 38.6759 37.8943C36.2213 40.5074 36.8395 43.1999 38.9405 46.067C43.0673 51.2976 45.2664 52.2606 49.2882 53.597C50.3741 53.9305 51.3642 53.8841 52.1466 53.7759C53.0204 53.6411 54.8339 52.7134 55.2126 51.6753C55.6004 50.6371 55.6004 49.7757 55.4864 49.5769C55.3792 49.3781 55.0803 49.2676 54.6241 49.0688Z" fill="white"/>
<path d="M59.2075 33.0789C47.5138 22.1342 28.1597 30.0727 28.1528 45.5146C28.1528 48.6004 28.9878 51.611 30.5778 54.2682L28 63.3421L37.6337 60.9102C49.6559 67.1965 64.4932 58.8493 64.5 45.5235C64.5 40.8474 62.6134 36.4452 59.1847 33.1386L59.2075 33.0789ZM61.4614 45.4749C61.4522 56.7156 48.7092 63.7331 38.6306 57.9967L38.0831 57.6809L32.38 59.1166L33.9084 53.7492L33.5457 53.197C27.2723 43.5311 34.4788 30.8966 46.3595 30.8966C50.395 30.8966 54.1842 32.4207 57.038 35.1817C59.8896 37.9185 61.4614 41.5873 61.4614 45.4749Z" fill="white"/>
</g>
<defs>
<filter id="filter0_d" x="0" y="0" width="93" height="93" filterUnits="userSpaceOnUse" color-interpolation-filters="sRGB">
<feFlood flood-opacity="0" result="BackgroundImageFix"/>
<feColorMatrix in="SourceAlpha" type="matrix" values="0 0 0 0 0 0 0 0 0 0 0 0 0 0 0 0 0 0 127 0" result="hardAlpha"/>
<feOffset/>
<feGaussianBlur stdDeviation="5"/>
<feComposite in2="hardAlpha" operator="out"/>
<feColorMatrix type="matrix" values="0 0 0 0 0 0 0 0 0 0 0 0 0 0 0 0 0 0 0.1 0"/>
<feBlend mode="normal" in2="BackgroundImageFix" result="effect1_dropShadow"/>
<feBlend mode="normal" in="SourceGraphic" in2="effect1_dropShadow" result="shape"/>
</filter>
</defs>
</svg>
