<svg width="14" height="14" viewBox="0 0 14 14" fill="none" xmlns="http://www.w3.org/2000/svg">
<path d="M13.58 11.62L11.62 9.66C12.25 8.68 12.6 7.56 12.6 6.3C12.6 2.8 9.8 0 6.3 0C2.8 0 0 2.8 0 6.3C0 9.8 2.8 12.6 6.3 12.6C7.56 12.6 8.68 12.25 9.66 11.62L11.62 13.58C12.18 14.14 13.02 14.14 13.58 13.58C14.14 13.02 14.14 12.18 13.58 11.62ZM6.3 11.2C3.57 11.2 1.4 9.03 1.4 6.3C1.4 3.57 3.57 1.4 6.3 1.4C9.03 1.4 11.2 3.57 11.2 6.3C11.2 9.03 8.96 11.2 6.3 11.2Z" fill="white"/>
<path d="M9.10005 5.5998H7.00005V3.4998C7.00005 3.0798 6.72005 2.7998 6.30005 2.7998C5.88005 2.7998 5.60005 3.1498 5.60005 3.4998V5.5998H3.50005C3.15005 5.5998 2.80005 5.8798 2.80005 6.2998C2.80005 6.7198 3.08005 6.9998 3.50005 6.9998H5.60005V9.0998C5.60005 9.5198 5.88005 9.7998 6.30005 9.7998C6.72005 9.7998 7.00005 9.5198 7.00005 9.0998V6.9998H9.10005C9.52005 6.9998 9.80005 6.7198 9.80005 6.2998C9.80005 5.8798 9.45005 5.5998 9.10005 5.5998Z" fill="white"/>
</svg>
