<svg width="24" height="25" viewBox="0 0 24 25" fill="none" xmlns="http://www.w3.org/2000/svg">
<path fill-rule="evenodd" clip-rule="evenodd" d="M4.4484 3.25159C4.22208 3.033 3.91896 2.91205 3.60432 2.91478C3.28969 2.91751 2.98871 3.04372 2.76622 3.26621C2.54373 3.4887 2.41753 3.78967 2.41479 4.10431C2.41206 4.41894 2.53301 4.72207 2.7516 4.94839L19.5516 21.7484C19.7779 21.967 20.081 22.0879 20.3957 22.0852C20.7103 22.0825 21.0113 21.9563 21.2338 21.7338C21.4563 21.5113 21.5825 21.2103 21.5852 20.8957C21.5879 20.581 21.467 20.2779 21.2484 20.0516L19.4808 18.284C21.3498 16.7937 22.7319 14.7799 23.4504 12.5C21.9216 7.63159 17.3736 4.09999 12 4.09999C10.1189 4.09744 8.26381 4.53901 6.5856 5.38879L4.4496 3.25159H4.4484ZM9.5616 8.36359L11.3784 10.1816C11.7853 10.0735 12.2135 10.0742 12.62 10.1837C13.0266 10.2931 13.3972 10.5074 13.6949 10.8051C13.9926 11.1028 14.2069 11.4734 14.3163 11.88C14.4257 12.2865 14.4265 12.7147 14.3184 13.1216L16.1352 14.9384C16.6764 14.0216 16.8974 12.9509 16.7636 11.8948C16.6297 10.8387 16.1486 9.85698 15.3958 9.1042C14.643 8.35142 13.6613 7.87026 12.6052 7.73641C11.5491 7.60255 10.4784 7.82361 9.5616 8.36479V8.36359Z" fill="#919EAB"/>
<path d="M14.9448 20.5364L11.7 17.2904C10.5332 17.2173 9.43324 16.7209 8.60647 15.8944C7.77971 15.0678 7.28302 13.968 7.20961 12.8012L2.80201 8.39362C1.78826 9.60083 1.02283 10.9963 0.549606 12.5C2.07841 17.3684 6.62761 20.9 12 20.9C13.0164 20.9 14.0028 20.774 14.9448 20.5364Z" fill="#919EAB"/>
</svg>
