<svg width="24" height="22" viewBox="0 0 24 22" fill="none" xmlns="http://www.w3.org/2000/svg">
<path d="M22.4525 0H1.54754C0.708197 0 0 0.708197 0 1.54754V20.4328C0 21.2984 0.708197 21.9803 1.54754 21.9803H22.4525C23.318 21.9803 24 21.2721 24 20.4328V1.54754C24 0.708197 23.2918 0 22.4525 0ZM0.891803 1.54754C0.891803 1.18033 1.18033 0.891803 1.54754 0.891803H22.4525C22.8197 0.891803 23.1082 1.18033 23.1082 1.54754V2.62295H0.891803V1.54754ZM23.082 3.54098V17.5738H0.891803V3.54098H23.082ZM23.082 18.4918V20.459C23.082 20.8262 22.7934 21.1148 22.4262 21.1148H1.54754C1.18033 21.1148 0.891803 20.8262 0.891803 20.459V18.4918H23.082Z" fill="#22468F"/>
<path d="M11.9871 15.8426C14.6625 15.8426 16.8396 13.6656 16.8396 10.9902C16.8396 8.31475 14.6625 6.1377 11.9871 6.1377C9.31169 6.1377 7.13464 8.31475 7.13464 10.9902C7.13464 13.6656 9.33792 15.8426 11.9871 15.8426ZM8.05268 10.9902C8.05268 8.81311 9.81005 7.05573 11.9871 7.05573C14.1642 7.05573 15.9215 8.81311 15.9215 10.9902C15.9215 13.1672 14.1379 14.9246 11.9871 14.9246C9.83628 14.9508 8.05268 13.1672 8.05268 10.9902Z" fill="#22468F"/>
<path d="M11.1207 13.2197C11.1994 13.2197 11.3043 13.1934 11.383 13.141L14.0322 11.3836C14.1371 11.3049 14.1896 11.2262 14.2158 11.0951C14.242 10.9639 14.2158 10.859 14.1371 10.7541C14.1109 10.7016 14.0584 10.6754 14.006 10.6229L11.3568 8.86555C11.2519 8.78687 11.147 8.78687 11.0158 8.78687C10.8847 8.81309 10.806 8.89178 10.7273 8.97047C10.6748 9.04916 10.6486 9.12785 10.6486 9.23277V12.7475C10.6486 12.8787 10.701 12.9836 10.7797 13.0623C10.8847 13.1672 10.9896 13.2197 11.1207 13.2197ZM11.5666 11.9082V10.0721L12.9306 10.9901L11.5666 11.9082Z" fill="#22468F"/>
<path d="M3.33093 20.2493H5.08831C5.08831 20.4854 5.29815 20.6952 5.53421 20.6952C5.77028 20.6952 5.98011 20.5116 5.98011 20.2493H20.6686C20.9309 20.2493 21.1145 20.0395 21.1145 19.8034C21.1145 19.5411 20.9047 19.3575 20.6686 19.3575H5.98011C5.98011 19.1215 5.77028 18.9116 5.53421 18.9116C5.29815 18.9116 5.08831 19.0952 5.08831 19.3575H3.33093C3.06864 19.3575 2.88503 19.5674 2.88503 19.8034C2.8588 20.0395 3.06864 20.2493 3.33093 20.2493Z" fill="#22468F"/>
</svg>
